<mxfile host="Electron" modified="2024-02-16T06:06:54.480Z" agent="Mozilla/5.0 (Windows NT 10.0; Win64; x64) AppleWebKit/537.36 (KHTML, like Gecko) draw.io/21.2.8 Chrome/112.0.5615.165 Electron/24.2.0 Safari/537.36" etag="ZFXqkP5plv0a-TII3gFK" version="21.2.8" type="device">
  <diagram name="Page-1" id="2XWkQP5S-hDbL94sL5Vg">
    <mxGraphModel dx="2058" dy="1180" grid="1" gridSize="10" guides="1" tooltips="1" connect="1" arrows="1" fold="1" page="1" pageScale="1" pageWidth="3300" pageHeight="4681" background="#999999" math="0" shadow="0">
      <root>
        <mxCell id="0" />
        <mxCell id="1" parent="0" />
        <mxCell id="APLwThIm-aDqV8bCMrbt-1" value="ListView and ListModel" style="rounded=0;whiteSpace=wrap;html=1;fontSize=25;fillColor=#dae8fc;strokeColor=#6c8ebf;" parent="1" vertex="1">
          <mxGeometry x="1298" y="140" width="650" height="60" as="geometry" />
        </mxCell>
        <mxCell id="ZJUjNV4Mgbb7EmD_GLAI-1" value="" style="shape=image;verticalLabelPosition=bottom;labelBackgroundColor=default;verticalAlign=top;aspect=fixed;imageAspect=0;image=data:image/png,iVBORw0KGgoAAAANSUhEUgAAAhsAAAITCAYAAACudN7QAAAAAXNSR0IArs4c6QAAAARnQU1BAACxjwv8YQUAAAAJcEhZcwAADsMAAA7DAcdvqGQAALGZSURBVHhe7N0HQBNnHwbwJwmbIBsUFQTceyLuvat1793Wz1Y7bK0Va622de89W1fdilpHrXsvnKhFRUCQoYDsDUm+e5MLhJAAYVTG//d9V8l7l5vJvc/dvXcR1K1XXwaeTJb5pwL3Wq1Ei/wNlUnHwXVVzKP/D5TuFVT61z8h5ZOA/7fYlP4JlCg6L20xvEE+hCD7cIqXWWXsL3nYyD1k8H9x/5SeSkTHOS3ewcuAYl7iUr5Cy9/ngWiTfZdbAhT7DJW4JS5WOi9t8b/hg5DPZdZ/5BQvs8+/augQ1KlbL9u+Mit48P9y/+S9M817iGyKd/D/QHlb3tKuhK1R2sBFJ/u+rRwoXwtc7Eur8wRK1vr/cLOvGJH8v1n/kRNoCRxZYUP9bIbi/zz11/81HadcvIP/B0rWApS89VPcyt8Skw8l+465rNN5aYv/DSWKWj2dDx9uebOdtcj+H/5Pxd8M+1MeNtTPZmS9VG+zoWUnrKVYGx0H113mAuRPsc9PsStpG6B4lf7tRUjJlFU9FBOdJ1Dsc1Ssin9xdXtD0Y0+q4f8Lz5YqAYQJlu/2nXq8vtu7h/F/+V/Z6+v1V+ry7VnTsU7eAGU9vkv7UrYGqLZKTWydmulVLEvQKlfQ8VK57VT/G/QyYecf3kftbMXrJT/R/mfzOH4sKESJrg/9PT1YWpqAgN9AxgYGkAkEhXpHk/9fEmZV+IWt3hnqJxtXULKDEX1UJyKfwo6KWGzU9z4KFA0uFFJJBKkpqYiLS0dSUlJyEhP58oV01CGD+V/ubBRR+UqigxmZmYwtzDH++hEJKemIyU1A+kZEn6A0kqxwFl0rQ7Z+wvyHkLKu9y+B6rfKfq+aJTbbkfTKlMfPr+rX5u8NkuZ2IRsIdRnPj8rp6wo+LLq64lgZKgHY0N92FiJERMTi/i4OG51KtZntsBRq3Yd+ZRY4rCxseEmK0JYRCzS0kt7wFDS9g0oqg+TtvETUt7l9t1Q//7R9yiH3HZRmlZXUQ6vTtvmUY6jzG0+XVZOWVD45TXQF6GSrTn0RDKEh0fwpdxHQ/7ZEEDIJsKCRgUzM+4vEQJDo0p40GBzruw+tDL3DSOkiOT23dC0YytvO/c8aFsd2nZ9ea0+1j8/q1jbZtP2fm3zU6rlZ0URdSw3sPyQIRHIr5AoLpkom2jIIGR/6OvpyS+dhEXEsdISTP1Trfyka/rEaypTlVf/vBTmvYSUFrp+T/Ia/r/ekSt2eB+UchbyOyu6zq4uw6vOh3JTqXaM8l9NVN9PypDcNrpu2JURC3Nzea5QBg32r5D9aSo2lbfRSEvPYC9LMfVvTX6ovke9I4Qo5PV9KKnfmWKer7wqXV0r5eIeXlVh3ssU9v2kTGJnOCKjE2BiaiJ/rQgcLGxwf7G7TlhjUKJOuaPS1BFSnmiqWQryfdD2Hl3GUYLoOtvahmertyCVd2FXm3K6qtPXZT5U31dmsJVaSj+PJQTLEyxXKJMGu6QiZH+y21vZXSclg3JDq29s2viE/Pe01SZF8X3U9l3/QJSLqmlx80t1HOrj0bSYmobLjbZxF5WCjre456ugSuI8lUhFu5JYnjA0NFSMlQ8cgho1a8qqOVXDs1dh8gJtKpgZy29z0RW7bTYuPpl/lZcSstMhpFzR9r3LbQdUhr6rmhazIIun6+rKbfj8Uo63KMaVH7pMT32Z1d9TkHWsKrfxaZs/naf5X63YD63ol7Ne9Up4Hfia+0sgvyNFUL0GFzaqOeHfV28VQ2ixculvcK3uyr/STPkDLCFvIzOv0yTGvce338+GUJifoFLYTx8hRHe5fe807YRK+fc0P/tVXRcxr3Gqj6+o9u3K8RbV+PLCpqfrtLS9R9d1rErbPOS1PnSe5n+1Yj+0gq5Q7epWr4jXrwNVb33NHwtzM9SrXSPXrm6t6vKuWwd3dO+o6GxtrOXXa/JWmE8eIaTgcvt+su+lelfKaVokZcco/82vvHZvquNjw+q+39auqMeXl4JMS/ke1fWs6zpWp+n9qmV59S+EX3/+AUG+DxDi/1hjx/qxYUqamxePo3XL5vyrnFi/GxeO86+KStbTyfMdNkQiIQKDwrF6zw2s2Xcdaw9cw7rDV7H+6GUE+AcjOTEeEe/eyrukhHjs/sdb3uXEtnhW9/T+VbRs0Yz1yLR9y2qu/Ar/Km9sA7ds0ZR/pcBes3KG/fvb3Jnyv0uSE0d2a5wvVsb6qWPrhK2b/GLj0LYe2XiU60dX1y+ewCfjR/KvNNO2bOx9bLqqnS7LREiuClv56loh5TUt1fEVZr5ITqrrVtN2y6t/vuR847jRw9Ct9xDUadxWY9e+a3/5MCXNdI9fsW7VAo2Bo3XLFly/hfh+1q98SdHLd9hgz1QXCEQIiE3A6/h4BCbF4U1qLILTY5CeLuXSC9fx/1MSGag/HCx/W3zCpK9Rv1kH/lVOLEioVqIPHnpj8mfj+FcK7PXZ85flf1d2aYTZcxfJ/y7N2Dph60YbVmmrV9yWlhYaK/0WzRrzf/33Al4HybeJsmPzwgIMIQVW2JBREGUxaLB5LnDFzCnMewsir/nNrb/yM5Pntsk+AvZbYWHvwhEXF891Cfy/Wd3rwCDF74mVMDfv3MPUb2blCBzsb1Y29RsP+TBZcluxust32JBIpfJ/ba0NITDIQGxGHCJS3uNdsuKxpAK1DWZkmQITmyT+VfE6duJv1Kjuwr9SkFdgN+/wr8ovFsQ6tm/Dv1JgZxdYhV9SsBBlYV4hz7MlhGikqbLIswLJp3xVRmVMYZa3vK0ruaKtlIuTeuDIChqzuH73+aHUFc1GzXfYUE7O510wAmLCEJMRjWTEI02QIC+X8etb+atyphYJMBEr+inkf4OoXkZQPe3OzmawsxqeB7bLj9iVp+B/37EXztUcMy+lKP9l5YzyfQz7Vzk+1rHX6pct2FG28mwA66/pUgQbXnU8SsrLB8py9SN2Zbm2yxu5Ub18oTp95RmN7l07yjtWplzex0+eySty5WtmwtgR8oCmSv3yhurZENV1pr48qv1YpzodXbDww7Yhoz4vSsrtoixnw6muB1Xatg8pg4prX6+6jy3I/pa9R9mVFiVtXnNbh6r9tA2jjS7Dymn6kCnLdB7ZB6UaOLKChuoZDaWiXS4dLqMoJHPhQt84HfpG6dAzTIM+18lx86X687W1bauiukX2sw0FMe3L/2HgsAny0+3sCPiO1wP56+joGHmZ8rICO4Lv26e7/G92CcXr/iP53+pYUFGevmfjWb54nvwSi7KiY5Ulq5wbNagnf83GqWlcfQeNyRwPu1yjevmCVebKfqpH7CxgbN+1T17+yeRpaNqkobxcV2x8LGwpp8HWAevYfLCOlbH1pMTmX3mZSRkGlEGMYWW/zPkhcz3Lx8ktg3K+2Tqb88tieTmbf+W6YjStz4KIfB+Fyg6V5PPCtrlynGy6LDgo9e/bK3M+2DyzMMVes+2v3AbsX9X1w4YtSLgjpUhBAwfbnyo7VZr2s5rKSKGE+D/KvQtQdHKq20rbttA2jLZynbAPmfKDVtAPXGlT4JWVg1DeVFSH8clDBtfpG7JOJWxw6151NNUtXeVdYbEjXlah5YUdqSsvF7BLKpu27pT/rUpZeSqPdtl4lRVnTGycvD8LF2xcynI2Tk3jYpWicjzsbIIqVrkpKY/YlZW8su0ICwOsgiwI5Zkc1Uo4NyyIKOdx9sxpuHz1hvxvJbbMbF5UAwoLLW1bt5SvE7YMynDC/lVegsltferKxtoKIaFh8nlRnrViHQsUquNcuXaz/N8Tp87KA6dyfbLQwcbBsO2vug2Uwyi3AVGlugNlim7n8p9T3//ntSjq/dlrZZcf5aW+UVWUy8yt58rOjfPVFVh+tmeey5TbCPL7YSk5VC+dqF5SKXKZ6577D5cz8n1mQ0kRNBQhw4D9a6AIG8pfeFOQIS09HcnJKfzrglOeQWAVT25Hp6wSVF4uYP+qVpyqWEWpPOJVdgyrgFnlysIFq8jYcKwy1TQuNg3VI3plQ9S8sEBTVNh0WQXL1ovqWRVtWJhglyDY2ZT8NpZllT/DKnVttK1PXbH5YuudYfOqOr7cGgvrQttngpRhqrulolZc4y2rlNuiOLeJOhYk8goTec5L2UmV2dto3MvRhqM45T9scOs7NTUZLW1c0dyyBppWqInGpnXQ0LievFwxiGKjsNwhlUozG5UWBWUlxip6Vmmwo1918iPwTSu1XkJRnhFQHpGrYhWdspEpGz87u8EuJSiP4tWpVsD5ubODjVN12mw5CnoZRYmFBnaZQTnfLBwoj+7VKZdHUzBiy87mRfXIn50JYeVPnz3P1o/Nv/JMQ27rUxcsMLH5YutI07zoyveVv3xZlVjIKsqgV7aV4h1rbpVGUVVubDzKrjwqTcut+lEuwo+1RCKBlYb6R6liRTv5MCWNetBQ0h442EpTdoWX77DBckOdWlXxv05d8b8O3fFZu174tF0/fNLmY9SuVQUmJqaws7OFFVfZ6Rvoy8OGUJi/mWRnCZSnzdWP0tnZDGU/FiKUR6csBKgPzypUFkI0XfZQYpUzOzWvHKfyUgQbLzuLwSoqRlmRsnGqY8Oyyks5Dm2BRJ3qtFkoyu0yCqtwleNnnSpWuSvL2fi+++Fnebmyombl6pW18vKHpnXDlofNm+p2YK9ZOevYJQllP/UApm195oatV+XwrGPjULa9UZ8e6/Jz5kYVGxcLg8r3s3YebTv35fuWN6o7DE3fxw9ce+hacSuH19TpKn+7J1Iaadq2uW1vHT4/O/88iKvnj3H7FtauJGs/puzuXjvDDXOAH7pkYE/3XrrgpxxBQ0kZOJYtnMOXqCv8l0VQvXoNWbVq1fCvX+6PK//my0lo0lj7kbhQKJR3LNGpPjHU+/FTLF25HkKRHl9CCCk45Zc+P3vHvHYQquMo/M5EZ5oWQdts6FAZaKVp3EUxXlW6bB5SMIX9qGrbNgUab+nZ0Cxw5P00b9X+6itEt2Wt68oeV/5aPhr5c7ryGzbkD+2SZn9oV37IJ8KFEIFA5+YhhJAcdNkB5Gfvyd5foL1s4eW1K1HOlm67HO00LWZRjVupqOeZ5JTbx1W53vMzjLrc3qNVWdvQua1A3ZZVPWxoSQA5J8SeHsrOTohE+jp17D0UNAgpKupfePZdVXaqcn6HNcvvcP8x1dlSLp6yy01u/dVXXXHUE2ycxTFekkW5jlXXc16vST7l9QUrOA0pQDkx5Tdb2RFCSrb/4Puq3ImrdwWhbTbzmn1ti6gsy+39hZ1nUrLktS1Vt3d+hiWcvL6ABaMWNopnIoSQovQB9or52VH/17Olurv6kLsu2m2STOzDkNsHorR+WAr/5VYJG/SNIYSUAAXZr/3XQUeJdptlS6E+R/n9MJTPDw01piCE5I3tH/PaR+qyD2U79dx27Hn1Z9T7K9+T1/uK0n89PVL0lJ/t/HzGc1C+QZc3lsYPjM4rJgchfU8IIfmm3CGr73vyuy/StXLWNjztuEhhafocq1J+9rR9BjNpGkl+y8o2+Wrj/sP+pTMbhJCCUe4787sPzXWHnQf2XuX7CzMeQoqd8gPKvhiqHVOaP7yqy6E7ChuEkML5L/efFDRIiZdbhVzwyrq0o7BBCNEdq/RVK3711+ooJJDSLq/PeL6Vz8AhcK1eQ+ZcrRrOnVP84qaqNEkC/KPPISj2KuLTQhGfGop0aRLflxBCCCHlib7QBGaGDjAzcICjeXs4W3SFoZ4Z3zdLt27dEfD6tSJaCQTaw8bT8L1ctx96Qn04mbWCjXFNiPXtYKpvyw9BCCGEkPIkMT0CCenhiEx+icD4W8iQpqO+3XCuy/7r33mGjZSMaNwL3YjXMRfQ0GYYqlt0kZcTQgghhKh6xWUF78gDqMZlheYOn8NIz1Jerh42crTZYEEjKskHbR2mUdAghBBCiFYsJ7C8wHIDyw/aZAsb7NKJ8oyGnUkdvpQQQgghRDOWF1huYPmB5QhNMsNGaka8vI0GBQ1CCCGE6EIZOFiOYDeXqMsMGwEx5+WNQenSCSGEEEJ0xfIDyxHsLlZ1mWGD3d7K7johhBBCCCkIJ7PW8jyhjgsbiieVsOdosNtbCSGEEEIKguUIlidkLFvI5P/lyLLObLAHdrHnaBBCCCGEFIRY31aeJ9Rlhg32ZFB6YBchhBBCCorlCE1PGs8MG4QQQgghxYHCBiGEEEKKFYUNQgghhBQrChuEEEIIKVYUNggpj2RSSCQSSKWKG9PIf0MmlSjWO612Us5Q2CCk3JHA94/JqFOxCepN+AuhZbLii8OTfcswecpaHH2ZzJd9YOm+WNvHHfYOPTD5eDhfqFQC55eQIkRhg5QhqXiwZARqVG2Oqtm6Fqjm0hYNW43G+NkHcO1NCv+gmXIsJQGxSUlILLH1mnJbtkKrqefwli9VlxZwDJPcWqNazR7oNe04fFMU5bKQS1jgsRm7d6yFx5IbiFAUf3CS1BQkJ8QjIZ0v4JXU+SWkqFDYIGULV4lGRsUgKlsXjYh3b+HnfRuHVv6IXk0+wsTdfuDrJVJSybdlBEKjNG8pWfQd/Dp2DvY8i0CG88f45ZePUcNI0U9g1wA92lSBmbkTWnerC2tFcYlV2uaXEF1R2CBlkm3vX3En8D5CQx8gNOQuXj4+gdMbJ6BDZQPIkl/j4HffY/k9Ol1daqW8wu+TpmH1gySY1BuN33dNRgszvh+j74Lxey4g5M1Z/DHMoeTv6Erb/BKiI6FMxh0h8C8IKStk+mLY2JjD3LwCzC2sULl6HXQY+yOO/zMfAyqLgMRn2LfDCzH88KQUkUbi7Oyv4XE6HELH3li51wM97DVVz0KIRAL+79KgtM0vIblTZguWMyhAk3JF37krJvZkR44SvPv3OcLUrp2Tki4ZT9ZPx2ebXyDFuhXm7FmI0dUN+H6EkJKKwgYpZ4xg72jF/ZeT+YuESfj36HYsXbwRa475cq80iH2KA6s2YPGqo3gQxZepSngBzzVc/5UHcS1UwhcqpEf54uzWZZg8ZCTau/eBe6fxGPX5Emy+EoZUfphs0kJwYcsGLFy4CdtvRnDzmIawO574eeIEdGv7EVp1GIcJc47AKyKDf4NmaeHeOLRkNob2HAh3t37oMmAGftv/GOHp3HLnce+lzvOcC2m4F9Z/PRUTfvSEdxxfWCAShBz/BWN+vo5I4zr4fNsKfN3UlO+nJsMPJ7nttWjRemy/pf38Verbh9i/cBaG9BiIli36onP/H7Dw4FNEpEvgd2Y7lixch6W7HiBKw+oqynWU3/klpLSisEHKF1k0fB6FcIFCAAuX6rDXZ4XGqJB0C2t/WY55S07BR0NTjpi7ezHvpxX4Zc4a7HiUs8ZM8jmJJXNXYNGffhBWEPGl6fD5fQqa1uqNAd9swu7TXnjw7ys887qOY7u24NuPeqLNF6cQqH52RZAE7/0b8dtv2/H3Mz8cnzUKbt1nYNnBG7j96Dm8793AweU/oGubL7DpqaZ2J+kIOPwj2jYYjPHz9uPUNW88/dcHd856YuEnw9Bq0Cpc0XZ7R0HnWSuu0vZci/nbzuDg6mVYei68wJdt4702YvwXh+ErrYyBy9fg1+62UK7pHGQSvDy+Ab/+uhsXQjXNbBpe7Z+BVg2H4pPfDuL0dW8883mBu+eO4LcJg9FqyBpcunYWy39bhbUnApF9LRf1OuLkOb+ElG4UNki5EntzF1adiwQMXdF/THO+1b8AlVp1RCNzIMXvDm4Eqp8xiMfjf7wQIuX+lLzDncv+SFT04GUg6JYXAlJFqNquPeqL+WJOevR7xJvXx4h563Dp6V28DffG26Bz8JzVFhWFifDZvRBzT7GzF2rkBVLEXdmE6Tvi0GPpXjwOeICw4Gu4uWMCmpkLkRFyEb95eMJXrW6KvrwEwyYfwLMEEar0nIYD1y/j9dvHCH71NzzndYLJ7Z1YfSJY69F3gedZI24e3FujobURTKs0Rpcm1tza1o1AJkWi7xF8OXYdbsaao/1Pa7FxjDMM+f5a5TKD788vwLApnniRKIJD96+x/9pFBIQ9QrDvKRyZ2wEG1//AurNvuUiiWdGuI55OAxNSulDYIGWSQJKKhIQUJCdzXVICIl774Myaaeg6eAseJpqi4Sc/4Lv2XLrgiRzd0bOhKZDgi0u333LVvIqEF/jnSgjMGrSHm0MGXl+/gwDVWkj6Dl5XXiFBaA/3HvWQNVYBTFtMwgmvI9g2vSfcnC0hNjKEqZUzengswPzeNhBw773+1yO859+hpKh3onHtdBj67tyHrZPcUN1WDLFFJTQa4oG9K7rCjqu1o++ewN9+KuEo8RHW/rgfz5L14DJqJc7vn4KPmlSBjdgEFpVqoMf0dTj7ex8IgsK443M2HfUaruDzrI1x48ncPN5D0LMNGO+i9VyEdvH3sWTCrzgcZICGU1di57SGUMlzukt4gFWzD+F5ih5qjF+LSwe/RN+mjrA149aRQy30/H4Dzm/tifSXb+RhI2cGKPp1REhZR2GDlEkRp2ahSaWGsLPjOvsmqFavLwZ5nMLrCk0wYe1+nF3SiTsC5Qdm9KqiQ7caMEUsHl/wzvZQpSSfK7joJ4Bjc3c0rWqEhOe3cDtYpV3G+6e46B0LgV0T9GpmwRcyenDt0BkNLDV8zbhg0rJzLZhxVVlcUCAic5w5Z1WcABV7T8X0LlZqZwOEqNJjKHo5srtqgvDIN54vB2Jue+LQk2TAoiWmft8VVeWXiVSJUImNs7PqfKoqzDxrJ9A3glEBcgYT6/0PTjxOgMzUCe261IFNIfdaMXeO4phPKlChOT77siOqaFhHDv2+gUc3S/61uuJZR4SUZYX82hJSQon0YWJiBGNDEQTsviuOcY3e+G33JqyaUAdmOc7l66N6p3aoYSTD+4c38DiaL0YqXl64AT+ZIzoM7Ik+7o4wjPXBhXvvM494457exL13gHWzjmhhyxdqIs1AYvQ7+D66i78PHsDhhwnyL2BGUiKSsrcp5cIFm0EjVG1SE3aavqXG1nCw0OMySRriE1L5eUmB/82HCOHGZdmyL3q5cv01EdmgfqNK8ssQiunkQod5Li4WTUdhxghXGCX6YOOn32LtI41NePMpFf63HiM0g1tHrfqjX60cSUNBZI3a9e35dZSHErCOCCnpKGyQMsm212+4G/wY78KfIOyVJzZNrAv9Vyfx7Udj8dPlmMygoMqoVjt0cjVARvB9XPLhK7S017h8/hUyqrVBrxaOaNqtGarqxeDRhadQ3JSSjOdXHnAVvBka9WiOSuo1kywZvic3YcqAfqhdtTEcHNuicZuRGDxhDubufKx4zgcfhrKRj8eEG96Si0Ea6JvD3lJxy6ckQ3nRJwnB/u+Rxn2tzStXhLnWb7c+KtiYaR4vU9B5LiZSE2cMW7ESP3eyAiJvYt7Yn3E4R7ua/EpEsF8kFzkU66iC1iShD3PbCqVmHRFS0lHYIGWSTKgHQ33uuJ3717RiQ4xZvR27/ldTcXT81WL8HaGhIjCtie7tK0MvPQQ3rwXKG1Cmv76JM0/S4NixExqZcUfZDTugZSXgrdct/MuuXqQH4/aNIKSKa6F7O4fsd0ekBWD3hD5oNXwZdpz3Q5J1LXQdPg4eCxdg17G9OLO2jyKcCPI8ds4fWRoSE9O5IMVVlPYWeTeg1OS/nud8EojrYurvi/FpHSOk+h3FlFHLceV9ASpzWToSEtK4dWQAq8r8LdBaaRl/CV1HhJRkFDZI+SC0RreffsJn9QyR7nccsxfe4M9MqBKjYU83VBEl4+WVewjKkCDoyhU8SbJH6558w0+r+ujazArpgXdx+WUyJKGPcNknEeJ6HdDBSTVqSPD60GL8fDgIaZU6Y8nlG/D3PoIjW2dj9ldDMaibG+raFrARgzYCPRgYsnGmI+ZttNa7Tdhtn1FvYzXcafEB5lkHQvtOWLDrB3S3EyLh4R+Y8NmfeKbrFRWBEIZG7PIStw5ConL5fZw0xLyLK3XriJCSigsbXHqns32kPLBwx3fz+sFFLw0vdi/GyhtZDSuVLJp0QquKQsQ/vQ6vwDe4dvZfxDu0QG9lw0+BDdy614Vlymtcv/EGIQ9uwDvGEK4dW8E126mEWDy58AThMgPUHT0FE7n3Z29BkYHwV8GIY9+9IjvdborKTlbcMbsU0X7+eKetcaI0Bv4vIuQVafa7UT7EPOvGuO4obNk2FvVNJHj3z0KM+vYM3uh0RUWMyvJLU9w6CghEpLY2FbI4+L1UriNVJX8dEVIiyD/+3H/47wGd2SDliAC23adiVh87CJN8sOXHHbif/YEZgHUj9Ha3AaKe4typf3DcKxb2rbrAjStSEKJKq7aoI06Cz6WrOMvuXNGrgg5dqsOEH0IuIxqvg+O5r5o+zK01tI9Ieo4TJ17In9dRdFWSMWq2a4RK3IF13J19+P12zjDFJNw/gA2XNTwG9YPMs66EsO3yPXYt6sItZxp8d3tg7MJ7iMn3DBmjeuv68juRYm/uwdabWtbRPW4dXSyt64iQkofCBilfRJUxcM4ktLPgKhSv7fjx9+dqp9Jt4NazPqxksfC97oXnMRZo3qsJ7Pi+jJ6jGzrXMkKc331cfRoBOLqjW321x2br2aCmqwX3BUuE99HTeJjAlzNpYTizYAE2P0mRfwGL8tK+VZvhGNHQGEh9he3T5mPvi+zPvkzy/Quzph9GtJW1vH1JtrtRimueEwJwas0SzN16G8FF8rv+hqg1cRG2Ta0HMeJxd9k3+HyHXy6XRLKz6TACwxqwdfQSf3wzH/teZl9HiWwdTduDELEFv45UfKDtSkhpR2GDlDuGtYdi3ucNYYo4XF++FHuyPYJTAIfWXdDEIgUPT13GmwqN0LuVXfYKx8gZHdo7Quh3Dke80uDQqgMaZz3Ji2eONhMGoakYiLu9Gr2aD8O4bxdh5heT0bVFXwzflopBUxQP5lKrzgpH3AhfL5+E1hYCJPocxv/adkWrvt/g25k/Y0yvPmjQ5gcckXXEpx+7cMf46opjnqV4c3whPvfYgqXfzcT8y0X0ux8CS3T8eSWW9KsIUcZb/PX9F5hx8h3ydaepuCmmr/gMLc25dfT8MCa17YKWfaZhusc8jP+oL5q2/R4HpF0wZUiN/2gdEVL2UdggZYrQxASmBsawEGu9aZFjghZfzsCnjSvAIP4xtq4+h0CVWkpYxY2rRKxgpG+Iiu5d0aay+tfEBHW7usOFm4aBSSW06dUQVnwfVWK3ydi+5VO0dzBAypv7OLx5G9buvIQn0qaYdXANpjSygJmxAYyM9dSqJQEMjI1haGScy4OwBNA34fobGkLeJlRFhZZTcfjULxjTxBJ6ye/gffEkNq/dg6O33sKi+3c47DkbPV3FMOPGb6J2O0bB51kbISwcnWBnyP0lroRaVbJdbMpVntvS0AVjN6zAd+6WMMx4g8M//YL1XlmXRQT63PYxNoSBhhk1c/8SR0//hvHNrKGXFI6nl09g45rdOHw9DBV6/IDjJ35Cd3sJZNxS6nHrWV9lHIVZRyK2vUzEMNWwSLnNLyGlncDF1VXmXM0Zw5ZEYVTtg3wxIaWUVIJ0CVdFCEXQE+W+15Zxw2Zww7Lz3SI9Ufbkzfqxx1cIhdATahqPDFJuAPkg6u9VI8tIRnRYCPxDEmFS0RHOjpYwZm+QSfnpc9NQm1eZRALWSyjixq1lMdj8S7gZYMsq0jgDEiSEBcIvKAqpRlao4lwVDhX4Wk65fBqmzRRknrWTISUiBBEGFVHVXMuDxjTJ77ZUzhNHwG0vkXyFcduHWznsx20F3DrU/nZuHYW+hl9ILNLYOnKqjIrcOhIgGXfnDEaP5b5wmPgHbq5tq/IYeoXCbNec85Tf+SWk5NvzfCgOzLBCwOsA7rvEfZi5fSyFDUIIUZfxGpv7DcC3VwTovPo4jn9alU4DE5JPmsIGfX8IIURN/N1D2Hk3HjCrhW5tKtKOkpBCou8QIaR8yQjGsRVbceJZjPyXb7OTIOb+Lkz6dDseJ4tQtfc4DK2dW/sfQkh+ZIYNfaEJEtNVf+uSEELKIEEaQs+ux/CWreHScBD6jp4Fj3krMfu76RjQpgNqdvwFfwVmwLzFp9i8tAcqUvsJQvKN5QiWJ9Rlhg0zQwckpIfzrwghpIwSiFG3e1e0djJAnP9jXDx6EGuWrMfKTcdw9lE40i1qYcDsjbh2+nt0sKakQYguEriwwfKEuswGojM214elQWXUsx7A9yKEkDJMloGEyHcICX2HsHdxkJpYoqKjE1yrWMCQLjATUiDP3h9DdFowlvzvqVoDUcUdY3A0b4/A+FuKF4QQUtYJ9CC2rYxajZqiY/eO6Ny2Eeo6UtAgpDAC42/K84Qcly/4iJF1GcXFshsypOl4FXOBLyGEEEIIyR+WH1iOcLboypdkyQwbBiIx6tsNh3fkAYQn+fClhBBCCCG5Y7mB5QeWIwz1zPjSLNlOGNa3G4lqFl0ocBBCCCEkX5RBg+UHliM0yXF1srnD57AyqYProSvpkgohhBBCtGI5geUFlhtYftBG4OLiKnN2dsb58+f4IoWn4Xu5bj/0hPpwMmsFG+OaEOvbwVTflh+CEEIIIeUJe44Ge0xGZPJL+U0lrI0Gu3Sifkaja9duCAgIkN+JIpD/NoqWsMGkZsQjIOY8gmKvIj4tFPGpoUiXJvF9CSGEEFKesAd2sedomBk4yO86YTeXsDaf6tTDRq43ebEBCCGEEEI0kcmUN7fmji6jEEIIISRfiuwySkpGNO6FbsTrmAtoaDMM1S26yMsJIYQQQlSxBqLKO1FYA1EjPUt5eZ6XUVjQiEryQVuHaRQ0CCGEEKIVywksL7DcwPKDNtnCBrt0ojyjYWdShy8lhBBCCNGM5QWWG1h+YDlCSdGagz2zXJYVNtidJ6yNBgUNQgghhOhCGThYjkiTJPClWTLDBrvFlTUGpUsnhBBCCNEVyw8sR/hH53yURmbYYM/SYHedEEIIIYQUhJNZa3meUJcZNthDu9jtrYQQQgghBcFyBMsT6rLCRmqo/DkahBBCCCEFIda3lecJdZlhgz2GnB7YRQghhJCCYjlC08+aZIYNQgghhJDiQGGDEEIIIcWKwgYhhBBCihWFDUIIIYQUKwobhBBSBGRSCSQSCaT5+8VtQsoVoQyK/xFSJsgkSI6PRljga/i+eoOgsBgkpEnpE06KV7ov1vZxh71DD0w+Hs4XKsXhyb5lmDxlLY6+TObLCCnbFLmC/S6K/P90ZoOUBVLEvzyPpZPHoJlLY9hXaoHqdbuicaNOqFO9OSraNYZrk5H4ZMEpeEdJ+PeQ0ikVD5aMQI2qzVFVtXN0R63G/dB90Pf47dBzxHyAzSxJTUFyQjwS0vkCnizkEhZ4bMbuHWvhseQGIvhyQsoTChukdEv2x/6vBqJui8mYu/sWnkekw8jSDtVq1kDtGlXgYGkMUUYS3r28i/1L1mDf81T+jaTUSklAZFQMolS795EI9v0XN84cxcLxH6Ne5yW4HFUyzmcJ7BqgR5sqMDN3QutudWHNlxNSnlDYIKWW7P1tzOs7DJN+f4povUro9M1yXHl+H6FBN/Hs4d+4/+gyfN88wrugczizaTI+amwHU1nJqIBI4dn2/hV3ArntHfoAIa+v4fGtHVj9vxaoZCBBzL3f8fl3fyNUyg/8Iem7YPyeCwh5cxZ/DHOgnS4pl+hzT0qntED8+eV3WH4rGsLKnbDgn5M4Mf9jNK9iCj0BPwwjEMHIyhntxkzHgfOb8WUjI74HKe1k+mLY2JjD3LwCLGwroXrDtvh0xR848ENjiCHBm6tncfc9P/AHJ4RIpPrBJKR8obBBSiEJ/Pb8itl/vYNE3AjTd6/EV83NkeeuXM8E5mIR/4KUTcao08Ud1Qy4MBL7Br7v1BpQEEI+CAobpPSJvYtN624iUmaMJlPmYFpLMd+jcKRxfjizfj7G9B6Els37oH3PLzBtxRk8jdbQ2jA9BGc3rMGCBRux9Vo4ZLIk+J7YiKnDx6PfiF+w82kykBaC81s2YOHCTdh+MwIyaQJ8T2/Dl4OHo417f/QYOgdrzgcjKfPKjgQx/57FsimT0L1NbzRvPQIjv9+Fy2+0tzNJj/LF2a3LMHnISLR37wP3TuMx6vMl2HwlDBrfxc3TBdV5QhrC7nji54kT0K3tR2jVYRwmzDkCr4gM/g0caRTu7N2KJYs3YPWR50jkizWJvu+JFYvXY+mWawhM4wu1kIZ7Yf3XUzHhR094x/GFRUCSlIBkbpMJxBXhZKPPl2ZX5Ns6Nxl+OLlqAxYtWo/tt2L4Ql5BtgchpZDA2cVF5uzsjOFLojGq9kG+mJCSK+7Sz2jz8R74m3fA+qtbMN65sGcrJIi4tAqjxm/BjUhW2QggFAoglSou+Its3PHjgfWY4a5y9iT9JVZ2H4TZd03w0boNGPtiHiau/RcJrJ+eK746cwwLm7/JHKb3kvno8XgZftz7iqusubHI+BvOBRXQcsZmHJldB683fo+RP51HEJcSuMlDyrcvEVq5YY7nFnzfQjVUpcPn928wdOZZ+MvTigACkRACKf+cB6Ep6oxZgCOr+8BJtb5N98XKHgMx+44J+qxajZEBy/Hl+oeIkgi5Iw9p5jMi9Cp3xmLP1Zhc35h7JcGrLRPRftoNJLqOwtFr89DZXDFcNrJwHBnXH+OPxKLed7tx/pem0B4DJfDdNAEdvruJWIEdBu48hl2D7PI+O8XuRvllMLos9kGFj1dyIagvKvJ9FGJw5YeRGLjuFawGr8LVHb1RKdtIi2tbB2eu1493nMDeISq/oM29f0X3gfjprhgDdp3An4NUfvCyQNuDkJJtz/Oh2D/DEgEBAWzPxH3NuO8Z34+QUiIZL68+QAhXT4hrucOtcuEvi8TfWYehIzbixntD1Bo2B2ce3ULYuwcIuL8Vs7tVhCjyNhZ+8huOh2VvbcjXA0h9uAs/bo9Ciy/m4M+Te3Bs4zg0q6Dsy0gQe2Unlt+thh9PX0Lg28cI+nc/VgypBmNZHO6snY8l65Zj0rzrMBr4Cy48vYvQsDvwPjEd3R30II26ixU/HcJztTMF6dHvEW9eHyPmrcMl7j1vw73xNugcPGe1RUVhInx2L8TcU+xoWY28QIq4K5swfUcceizdi8cBDxAWfA03d0xAM3MhMkIu4jcPT/jKr0KI4NpnIDrYCZDx+iqOesWywhykobdw+FoEpOJ6GDK0fi5BgxGhintrNLQ2gmmVxujSxDofQSM7gUwKicomkcT749Rv0/DZ5peAa1/89nM3taDxX2xrLXIbROftQUjpQ2GDlDIpeBsYhTSuaqrg5Ax7A764oJKeYN2Mbbgbb4T6X27Ghd/Hol0NG4hNxLCr3Qkeezdippsp0l+fwardz7mpq0vAkyshcFu5B4eXjsWATi3RbeRIDK5nIu+rOH8RgxvXpPh872p81b4qrMUmsHJqjv+tX46vm3BHqklPsXbWHkR1mYejG0fA3dkSZmZWcO08GVtX9UNV7lsa9/A8LgaqnuIXwLTFJJzwOoJt03vCjXuP2MgQplbO6OGxAPN720AgfYfrfz2CehtJRb0XjWunw9B35z5sneSG6rZiiC0qodEQD+xd0RVcrkD03RP4209x+l5QuR1GdakIoSQUFz0fce9WJ0Hg2eO4Fi6DZcv+6F877w1j3HgyN/57CHq2AeNddA+N0ddW4mO3XmjerAfq12iOSlV7Ytiyf+EwcjYOn1yAYS5ql1CKeVsXVEG2ByGlDYUNUrrIkhEVk8rtoIUwtTaHIV+cjTQEf47rgdo12qJmzayuRvWO6Dz7BlSPy6Ou7cXuh8nQc+6LedNbwVL98NqkPkZ/2hJWSIbP+TsIVN3Xyy9zpCLOrC0++9gJmu9zYSMUwbHfJxhZV21uTeth0KDaYFWVzKg2xk7rhWpq9aNN617oWJn7mia+wZMA+Yl7nh5cO3RGA0sNX2GhPVp2rgUzbi3FBQUiMsfRMJtvASr2norpXazUzigIUaXHUPRy5Cr/xCA88o3ny63QbnQXuOpJ8ObiKdxSTzDpr/H3IS6ECGzRgRvORY8vz4NA3whGBTw5lREdDB8fX/g890NAaAwS06WQSWLhc/Yw1qw+joex2c9OFP+2LqiCbA9CShcKG6SUEUJPfguhDKkJSdzxtCYyZMS9R0joW4SEZHWhYaF4F6s4jlRIhu91b4RJBLBr3AKuhqlISVHrUlMgtK4Ea67yTAp6gQDVfb2AzYc+nDt3RD1TRZFmhnBsUA0W/KsserCqbAN2FV5gXRtu1TVcjze0hF0FbuKydCQm5nIOXZqBxOh38H10F38fPIDDDxPkX+6MpEQkqa0k+TVUrrqs2qQm7DTtAYyt4WDBppmG+AQW7BTMW/RHfy4wSUJu4sjN7GkjzfciPO/HQeTYEWO62KtVmMXDttdPOP/wAp48uYhH947i7F8bsPa7LnBKfYWzm2ahW4eZOBKkXPj/alvrrqDbg5DSREifXFKqCIxgaWnE7Z6lSIqMQrymz6+wEob+cQav/G/Bn+sCAi9j35gqGpJ1EsKC2CUZGcKOe6B55Yawt1fr7Bqj9tB9eMUd5UpTEhCf4w4LI9g5WudxpGsMG3sxFy1yMjA1gSFX1xhaO8Be09l4fVNYs7DBLa8kI/uROjvL43tyE6YM6IfaVRvDwbEtGrcZicET5mDuzseQ3/eg6SFm8iRgwg1vyVWfGuibw95ScRkk2zRN62HosPoQS8Nx1fMesn4BJAVPj57CowR91Og3AG3+o0dkygys4FzTCS4ujqhRpwHadOmOiXPX4+addZhYyxDJvscxZ/5lhMtXwX+1rQugoNuDkBKO7X6UeyA6s0FKGTPUaOIkb3wY/e99PNfYVlEEE0sbrgKxlXd2NuYw1bQX544UFWcLBDC1r4Zatapr7mrXQN16tVC3pjWMVX7SU15HwADm5ob//RcpLQC7J/RBq+HLsOO8H5Ksa6Hr8HHwWLgAu47txZm1fRSNI+VH5EVFH7X6foyWFlKEXT2Jq2/5dZHwL46ffIVkk9oYNKwht4U+LD2Hzpj+VUtYQIKgaxcVt9WW5m1NSBlA3xtSyohQ2a05XLnDS0ngFey9Glnwk3MCQ5iZGXAViQBWXWfizJ1TuHtXe+d1dh4+Ur+94YOQ4PWhxfj5cBDSKnXGkss34O99BEe2zsbsr4ZiUDc31LUt/F06mohcumB0R1vgnRc8r4bL133cw1P4yycFFZr3x+D6RX7cXwBCWLk4wYZbBdLoYARESUvxtiakbKCwQUod40YD8Uk7C64mCcPJJTtws8APhBKjWp1KMIYUUf4BCC81Df1j8eTCE4TLDFB39BRMbGahdokmA+GvghHHkoCmyyiFIbBHl1HtUEXwHjc9byNUGoPbBy7BP90KbUd3RXWN1wH+azLEvgmB/Ad+DcUwN2K7udK6rQkpGyhskNJHzxFDZo5CMzGQ+PAPTP76MF4m8f10YgCXNs3hZAAkeB3AlmtqT3csqTKi8To4nqtS9WFubZbzOn/Sc5w48UL+pM8ijhpy1u0G4eMaeoi8fgKnb1zBvgshkFVphzHdK5eMHUr8I2zfcgdR3J/m9VujqfwZWqV0WxNSRlDYIKWSmfsX2PxrJ1QUpcH/4Cx07Pgt1lwMQrz6EassDRHeN3Ffy89/ilsMwYRW5kCaH3Z/Oxeb78fkuMMlPeoZ/py7DIdeqff5QPRsUNPVgvvyJsL76Gk8VL0jNi0MZxYswOYnKfIvd5E22VAya4ghA2rCKPoRDm85imvBAriwh36pPBgzXxICcGrNEszdehvBOR9qkSeBJA1JyRlIT2ddGhKi3sHnwnZM6vEZlt7jopZRTYz9/iNU50/7lMptTUgZQWGDlFKGqDNpHf7ZNhT1xDLEPvsLHn27oGrVtmjaZgh69RmFzq17oLZTM7i2moJ5Z0IhFRjCSL1JgUF1fLZ6JvpX1UOS70l826UrmnT6BBO/XYI5HrMxumcP1Kg5AP/b7I3oEnMJ3xxtJgxCUzEQd3s1ejUfhnHfLsLMLyaja4u+GL4tFYOmKB4ExVXJ8ncULWM0HNyPm34MrnteR5hBDfQf3pSbK11I8eb4QnzusQVLv5uJ+Zd1P9MQcXoWmjk0gJ0d19k2QCXHNmjebz72PI6BVFwdY9ZvwLwOKnNVKrc1IWUDhQ1Sihmi+tAFuPHkENb+rw1qWhtAEvcWLx49xNXLd3DnsR/eRKVB36oa2g7/CtuvXsatpW1zVIoGNYZg+4Xf8cvAmrBELPzuXsGBzVuwfM1+HL3+BlKndvh69WyMUPsNFpGhIQwN9KD9l8OFMDAxhqER12lrrykyhqmxAYyM9bTEAgH0TUxyjEPsNhnbt3yK9g4GSHlzH4c3b8PanZfwRNoUsw6uwZRGFjDTOF4BDIwV86T9YVpsmlx/tnxahjGo2R0jWimeHCJu0hdDGun6mx1CWDg6wc6Q+0tcCbWq5P8pnEJufZga6MNQXwSBQKDohHowNDGDrUtDfPTlrzjz4Dg2Da+W46Fvxbet+WFMxBrvfBLo63Pr3RAGOd5fNNuDkJJO4OzsInN2oR9iI2WANBXRYWF4GxGN9wlSGFUwh20lB1S2MYFeLpWEKklCBF6/DsO7mFTom1mhklMVOFhovt1RJpFAIuMqP5FI/sNpmuQ5jEyKDDaAQPmwspxyG4csI5lb5hD4hyTCpKIjnB0tYcxmNpfx5mu+pdww7CYOoQgiTQufEYAtAwZj2kUBuq71hOdER+heD8qQEhGCCIOKqGqu6SkkWsgk3LLxf6sQCIXcvGpZIA2Ka1sLuGGyr3IZpNzKZHfS5uyXz3HntT0IKUGUP8Tm7x+QdUBAYYMQoquke6vQrec6eFv0wY7rqzCoYv4reUJI2aYpbFBGJoToKAbXd/yFp8mGqDtsNLpT0CCE5EEoY/+V/4cQQvIiRfS1bfj1UBAktm3w5aSmH/yJoYSQEigzV3B/yNhPZ/L0hSZITI/gXxFCSJbwC+vx5de/4rsJo9B64GY8SLZH33keGOJELRYJIVlYjmB5Ql1m2DAzdEBCetZPKxFCiJIs2gcn/9iJTQe9ECxyxdClm7FprLPmn/gnhJRbCVzYYHlCXVbYMHBAZPJL/hUhhGSx7uaBv/7ZhdOX/4Hvq1PY/r/6MKemGoQQNSxHsDyhLjNsOJq3R2D8Lf4VIYRk0TOvjAatW6NDC1dUFNOlE0KIZoHxN+V5Ql1m2HCx7IYMaTpexVzgSwghhBBC8oflB5YjnC268iVZMsOGgUiM+nbD4R15AOFJPnwpIYQQQkjuWG5g+YHlCEO9nPeoZYYNpr7dSFSz6EKBgxBCCCH5ogwaLD+wHKFJtrDBNHf4HFYmdXA9dCVdUiGEEEKIViwnsLzAcgPLD9oIqjm7yFycnXHhwnm+SOFp+F6u2w89oT6czFrBxrgmxPp2MNXX9XekCSGEEFIWsOdosMdksLtO2E0lrI0Gu3SifkajS5eu8A9gjyvnggb7n7awwaRmxCMg5jyCYq8iPi0U8amhSJcm8X0JIYQQUp6wB3ax52iw21vZXSfs5hLW5lOdetjIcRlFFfvxFEIIIYQQTWSy/P3eCV1GIYQQQki+FNlllJSMaNwL3YjXMRfQ0GYYqlt0kZcTQgghhKhiDUSVd6KwBqJGepby8jwvo7CgEZXkg7YO0yhoEEIIIUQrlhNYXmC5geUHbbKFDXbpRHlGw86kDl9KCCGEEKIZywssN7D8wHKEJplhg915wtpoUNAghBBCiC6UgYPliDRJAl+aJTNssFtcWWNQunRCCCGEEF2x/MByhH/0Ob4kS2bYYM/SYHedEEIIIYQUhJNZa3meUJcZNthDu9jtrYQQQgghBcFyBMsT6rLCRmqo/DkahBBCCCEFIda3lecJdZlhgz2GnB7YRQghhJCCYjlC08+aZIYNQgghhJDiIIT8ueb5e7Y5IYQQQkjeuFzB8oXi/3RmgxBCCCHFi8IGIYQQQooVhQ1CSJkhk0ogkUggpSvDhJQoFDYIIWVDui/W9nGHvUMPTD4ezhcSQkoCChuEJDzAr93bwrFaH3zzdxRfSApOghcbJqK2Y3NUrZrfrhVaf3cZ7/kxFJQkNQXJCfFISOcLCCElAoUNQrjKMTEiEu8jYxAvFfBlpFCkyYiJikFUvrtoxCZJ+TcTQsoaChuEkCImQo1Pt8LnzT0EB2d1AQ8Wor8tF+YMauPL45cRHPoAoZndXdxe3h5W/BgIIWULhQ1CSJETGolhaWmRrbOzMOH7AsaWNrA0rwBzlc7MRA90XomQsonCBiGEEEKKFYUNQvIhPcoXZ7cuw+QhI9HevQ/cO43HqM+XYPOVMKTyw2STFoLzWzZg4cJN2H4rkiuQIt73EtZNn4o+HfuiZevB6DthKXZcC0OK4h0aFWS6F5TTvRkBGdIQdscTP0+cgG5tP0KrDuMwYc4ReEVk8G/IH2m4F9Z/PRUTfvSEdxxfWJxSw+F1aAumjx2Prtx8u7kPRLf+32H2lqvwjStY2w7Ju/vYvXojli7dhLV7L+H07q1YsngDVh95jkR+GE2i73tixeL1WLrlGgLT+EKlYphPQsoiQbVqzjIXF2cMXxqDUbUP8sWElCMJXpjZbgzW+lpj+IGT+L2PJd+DSYfP799g6Myz8E9iD28QQCASQiDln+UgNEWdMQtwZHUfOOnL36CQ/hIruw/C7Lsm+GjdFkyN24D//XIRgSkyCAQCyOQ/E8ARGKMOFzo8V/SEo+r7CzxdX6zsMRCz75igz6rVGBmwHF+uf4goiZA7spBmPn9Cr3JnLPZcjcn1jRUFuZLAd9MEdPjuJmIFdhi48xh2DbLT/ZLHu1MY1fIbHIuthRnnD+PnZkZ8D1VSvL+xGZ9OXItzwWmKH1IQqM27dVN8+fs6zO1mBz1FkYLKsn+84wT2DlH5Feu4R1g0+FP8diMWJvVG4o9jP6L2yc/QftoNJLqOwtFr89DZnB9WlSwcR8b1x/gjsaj33W6c/6UpxPIehZhPQsq4Pc+HYv/3FvD3D5Dv77j/0JkNQvKSHv0e8eb1MWLeOlx6ehdvw73xNugcPGe1RUVhInx2L8TcU+wsgiYyJN7agi8WPID9+MU4/+gWwsIfwu/RXqwbX4eruJLh88csTNr4nPsruwJPV14gRdyVTZi+Iw49lu7F44AHCAu+hps7JqCZuRAZIRfxm4cnfPN1i6gIVdxbo6G1EUyrNEaXJtbF1rYi7vZaDB60HGeDM2DpNhabz/yN50GPEPbmGu6dno9PmppD+v4BVo7+HAtux/PvykPyK2z95AssuBEDwxqDsOHQT/jIwQCufQaig50AGa+v4qhXLD9wdtLQWzh8LQJScT0MGVqfDxrFNJ+ElEHK/ROFDUJyJYBpi0k44XUE26b3hJuzJcRGhjC1ckYPjwWY39sGAuk7XP/rUY5nRCi+ZFG4tP8Bas/fj9PLB6JVDVuYmYhRsYYbJqz7E4e/qgNjxOHG+q04F64aGwo73WhcOx2Gvjv3YeskN1S3FUNsUQmNhnhg74qu4OpYRN89gb/98nc5xbjxZG7Yewh6tgHjXUR8aRFLfISV323F3Xg9uAxfhitn5mB0uxqoamUCsWUl1OkwDGvOHsCKHlzYSXiMDXMOwkf9soa69GAc+up/+OF0OETVPsKaw79gsJPiPIOgcjuM6lIRQkkoLno+4taYOgkCzx7HNW67WLbsj/61DRTFxTGfhJRxFDYIyZUeXDt0RgNLDV8VoT1adq4FM656jwsKRKT6WQL+UomZ23j8NMqVCxVqBOZo88Wn6G4vgDTkDv7yiuF7MIWYrjxuCFCx91RM72KldhZCiCo9hqKXIxcYEoPwyDf/R90CfSMYFVPOYKKuH8CBJykQ2HXGj/M+gosh30OVcXWM+H4w6hsB8feP4TA3vEbcKpBJI3Hux88xZW8gpFV7YPmRRRhVnQ8MclZoN7oLXPUkeHPxFG6pp7b01/j7EBdCBLbowA3nwl8LKdL5JKScoLBBiC6kGUiMfgffR3fx98EDOPwwQf4lykhKRJJEMUgmdq0SBqjWrhVqaGkaIazYEO1qmnI1YxSePQjW3lhUh+kK5PHCCFWb1ISdpm+4sTUcLLiaU5aG+IRU/kzIh5aMVze8EcYti3XLnmhfWfuuSdywEzqxsxMpobj/JBKammFKkt/iyqKpGL/BB6kVO2HBoWWYWDtnGxHzFv3Rv64hJCE3ceRm9rSR5nsRnvfjIHLsiDFd7PnQVrTzSUh5of2bQghRkCXD9+QmTBnQD7WrNoaDY1s0bjMSgyfMwdydjyE/H6Fs8JmDKZxq2XNVvxZ65qhcyYSryCRIik1CtosaBZ2uvFY04Ya3RLY2p0r65rC3VBzhSzJKShWYhNDAaKRzc2xfywmW2U/HZGdkB1cH9syOFESGxXPvUSdB5KnF+GTxPcTbtMbcg6vwRQMtac+0HoYOqw+xNBxXPe8h6xdVUvD06Ck8StBHjX4D0MaaLy7S+SSk/KCwQQhXOWXIK20BREK12iMtALsn9EGr4cuw47wfkqxroevwcfBYuAC7ju3FmbV9UIm9RX4WQxMh9ESKcw2aZSA1VaK48KEnzBqu0NMtZWSpiI9nZ1mEMDDSz33HJDKCeQUWo6RIT0nTcMYgDVHB7xDLkptQD3p6ua0jfdTq+zFaWkgRdvUkrr7lw1vCvzh+8hWSTWpj0LCGMFOUFvF8ElJ+UNggJDkGkfFcVSA0hrlY9VyABK8PLcbPh4OQVqkzlly+AX/vIziydTZmfzUUg7q5oa5tXo0YZJm3QmqUHoPgt0ncH/owsxTzZyKKYrqljMAYlpaGXNhKQ7hfGBL4Yo3SYvCGX2cWtmb8OlNljOqjZ2HRkCoQvruK2UO+xTYf7W0mRC5dMLqjLfDOC55Xw+XBL+7hKfzFvadC8/4YzBpeKBXpfBJSflDYIOVeRsw7vE3gqhgTe7hWUr3gEYsnF54gXGaAuqOnYGIzC7XnJWQg/FUw4ljtpPUySgICfMJy3NaqJH3ng3uBqdw30QYNmzpAcXGjKKZb2pjBtWFVmHBVfay/L0Jza0+ZEIKXYdw607NH/Ya2Gp9hoW9TD5+s34j53WwgDTmP7wf/gD99NT4GjQsQ9ugyqh2qCN7jpudthEpjcPvAJfinW6Ht6K6oni0lFO18ElJeUNgg5VwG/P45g0fcIapx9RZoUVnljEFGNF4Hx3PVij7MrTUcmSY9x4kTL+RPn9RY5cuDQBpenjiBOznvq+Sk4Mm+P3H+rRQip9b4uDn/VKnCTrdU0oNz505oIObqaK9dWHg0BOrtbRXS8O+f23A8SAoD13bo2yjzAkd2AgEEpnXwxY51mOleAemvT+HrwbNx0F9zywnrdoPwcQ09RF4/gdM3rmDfhRDIqrTDmO6V1XaSRTyfhJQTFDZIOSNBSoqyGaYMCU/24ac1DxDPHbE2H94H2doR6tmgpqsF9yVJhPfR03ioes48LQxnFizA5icp8i+RxqYTfGHai0OY8eNR+LCzJ5lS4X/oV3y67BESuGm3/nQM2ikfXFrY6RaHhACcWrMEc7feRnAx3cVpVG8gvu7vCH1pOE7O/BZzTgWrPZKdW2fHFmPyYi/ECe3QY9o4tNH01E8VAovmmPnnMkyqZ4yUV0fxxeCfcfSNhmeLmDXEkAE1YRT9CIe3HMW1YAFc2EO/bPn+KopjPgkp6yhskPJF9hYHPx+AVh1HoFurjqjZ/hecCpHCos3/sGB8df4yhpI52kwYhKbcUWzc7dXo1XwYxn27CDO/mIyuLfpi+LZUDJqieEAWV63J35GTDXpM6gkc/gEdmvRD3wk/44dvvkFv985oNfEA/k0QoerHM7F6Mnu4l1JRTLcoSfHm+EJ87rEFS7+bifmXVZ8HUoS4irnf4qX4oa0lZJH3sWp4L9RzG4mRUxfghylfoKdbJ7iP2Yn7sWI0+2oJ1o5yylc7CFGlzli471cMddZH8ouD+N+g+fib3buajTEaDu7HrfMYXPe8jjCDGug/vCm3JTQopvkkpCyjsEHKGQGECe/w1MsLN71DECsxRa1Bs3D0wCR55a5O7DYZ27d8ivYOBkh5cx+HN2/D2p2X8ETaFLMOrsGURhYwMzaAkbH2n0c3ajEZ+3d/jpaiAFw+uAfrtp7ElSfhSDF1Ru8fN+Ps9mGopXZvbMGnK4CBsTEMjYxzeQCXAPomXH9DQxjmq52pEBaOTrAz5P4SV0KtKlk/Fa8TgQimFUxgbGoKI217Hotm8DjuiYOze6CuRQbePruL49v/wLodZ3Ht32jouXbCjL2eODO/LWw1jEPElslEjGztfDmGrv2xbt9M9KpqjHT/k5j99UZcich+f4hBze4Y0cpC/re4SV8MaaTldlmmkPNJSHkjcKpWTebi4oIR9ENspJyQpsQiLDAQwfGGsHdxhpOVgdagoCTLSEZ0WAj8QxJhUtERzo6WMGaViEyKDImM+yYpbnHNlP4SK7oPwk93TTFw90nsHmgDSJLxLuA1At4lw9iuMpyr2aGCfu5T1nm6HJlEAtZLKBJB/U5eJZmUG4arawVCEUT5qgxlSIkIQYRBRVQ1L2hTRxkkGeyH5LjAp8dNN6+Vzq2vyKAgBL6NQ7qhOeyqVIWTnTFyy0fKZRdwy65p/Mr+TI5hMgKwZcBgTLsoQNe1nvCc6JjrtDIVYD4JKcvYD7Hty/whNu67xtpQUdggpBhoChukREu6twrdeq6Dt0Uf7Li+CoMq5pWGCCGaaAobdIKPEEIQg+s7/sLTZEPUHTYa3SloEFKkKGwQQso5KaKvbcOvh4IgsW2DLyc1zXpiKCGkSGSGDX2hCRLTI/hXhBBStoVfWI8vv/4V300YhdYDN+NBsj36zvPAECdqbUFIQbEcwfKEusywYWbogIT0rJ8hIoQUjrxxplCYd0NI8kHIon1w8o+d2HTQC8EiVwxduhmbxjpD0y/GE0LyJ4ELGyxPqMtsIDpzS0NYGlRGPesBfC9CSIHJUhAeEIKoNMDQpiqcbbI/wYN8eBmxIfB5FogofXvUqlMNFcV0RoOQwnr2/hii04KxaJK35gaijubtERh/i39FCCkUgRHsXFxRu7YrBY0SSs+8Mhq0bo0OLVwpaBBSRALjb8rzhLrMsOFi2Q0Z0nS8irnAlxBCCCGE5A/LDyxHOFt05UuyZIYNA5EY9e2GwzvyAMKTfPhSQgghhJDcsdzA8gPLEYZ6Oe/nygwbTH27kahm0YUCByGEEELyRRk0WH5gOUITRdjgH9/LNHf4HFYmdXA9dCVdUiGEEEKIViwnsLzAcgPLD5nkuYL7D/s/1ynuRnF2wcWL2YPF0/C9XLcfekJ9OJm1go1xTYj17WCqr+E3lwkhhBBS5rHnaLDHZEQmv5TfVMLaaLBLJ+pnNDp37gL/AH8I2C9PZf42ioawwaRmxCMg5jyCYq8iPi0U8amhSJcm8X0JIYQQUp6wB3ax52iYGTjI7zphN5ewNp/q1MNGtjYb6ti9sYQQQgghmsjYNZJ8oMsohBBCCMmXIruMkpIRjXuhG/E65gIa2gxDdYsu8nJCCCGEEFWsgajyThTWQNRIz1JenudlFBY0opJ80NZhGgUNQgghhGjFcgLLCyw3sPygTbawwS6dKM9o2JnU4UsJIYQQQjRjeYHlBpYfWI7QJDNssDtPWBsNChqEEEII0YUycLAckSZJ4EuzZIYNdosrawxKl04IIYQQoiuWH1iO8I8+x5dkyQwb7Fka7K4TQgghhJCCcDJrLc8T6jLDBntoF7u9lRBCCCGkIFiOYHlCnVD5uyjs6aDsORqEEEIIIQUh1reV5wkl5SO/Ms9ssMeQ0wO7CCGEEFJQLEdo+lmTzLBBCCGEEFIcKGwQQgghpFhR2CCEEEJIsaKwQQghhJBiRWGDEEIIIcWKwgYheYrDk33LMHnKWhx9mcyXlQaldb4JIWUNhQ1SBqXiwZIRqFG1Oao6tkLb6VcRqbzZW6t0PFkzHrUd3dFy8t8IVRleFnIJCzw2Y/eOtfBYcgMRfHlJVzrmW7mtWqHV1HN4y5cSQsoWChukbEpJQGRUDKLeR+Dh9kVYei2W76GdICUeke8jEfo+lS9RENg1QI82VWBm7oTW3erCmi8v6UrNfMu3VQRCo1L4AkJIWUNhg5RpBmJTGKW8xB8zt+BGHF+oK30XjN9zASFvzuKPYQ6l50tTWuebEFLmCBVni/M8x0xIKSSEQ5fB6OWsh6THuzFrzWPk/OHj/BJCJBLwf5cmpXW+CSGlnUwlWtDBDinDZEgT1cWkGV1RWZSEe+vmY+NDaihJCCH/NQobpAzjwobEADVHzMBPvWwhjH+AlR578VTXpgEZfji5agMWLVqP7bdi+MKcUt8+xP6FszCkx0C0bNEXnfv/gIUHnyIiXQK/M9uxZOE6LN31AFFaTiRK4/xwZv18jOk9CC2b90H7nl9g2oozeBot4YdQkR6CsxvWYMGCjdh6LZw7gkiC74mNmDp8PPqN+AU7n3KhKh/znR7li7Nbl2HykJFo794H7p3GY9TnS7D5Shiyt1zJmzTcC+u/nooJP3rCu6CXrHRQmHkv7LZCaji8Dm3B9LHj0bXtR3BzH4hu/b/D7C1X4Bsn5QfSLCPWFydW/YKJg0eiXcu+aNd1HEZ9uxVHH0YinR+GkLJG4OhUTebq4owRy2IxqvZBvpiQ0iwVD34ZjC6LfVDh45W4s7cvrHz3Y0T3OTgTUQFdlh/Aof+5wpAfWiEdT5cMR8d5j2HcexnuHOwPB+XVh/SXWNF9IH66K8aAXSfw5yD1HyxMw6v9szH0q6N4kaionQQCLsfLpFzc0UOlbv/DzHp38eMqLxj2XopbBwegcrYrGxJEXFqFUeO34EYkCxYCCIUCSKWKSktk444fD6zHDHdzrg+Pm6eV3Qdh9l0TfLRuA8a+mIeJa/9VXCbSc8VXZ45hYfM3ucx3Onx+/wZDZ56FfxKbZwEEIiEEUgmk7KXQFHXGLMCR1X3gpC9/Qx4k8N00AR2+u4lYgR0G7jyGXYPssuZXq5zbqiLfR7vCzHtht5UU729sxqcT1+JccJriAjT3fiFXLp82R8+6Kb78fR3mdrPjxqgqA2+OzsHHkw7hBZtv9j6BjNvOijfa9F2OW/s+zvrcEVJK7Xk+FPumW8DP35/7fnHfT66jMxukXDCoMRDzf2gNa8Tg4qLF2Psqg++TT3xFosn78wswbIonV3mJ4ND9a+y/dhEBYY8Q7HsKR+Z2gMH1P7Du7FuumtMs/s46DB2xETfeG6LWMC4QPbqFsHcPEHB/K2Z3qwhR5G0s/OQ3HA/LfsSsnKXUh7vw4/YotPhiDv48uQfHNo5Dswp831zmOz36PeLN62PEvHW49PQu3oZ7423QOXjOaouKwkT47F6IuacichuFChGquLdGQ2sjmFZpjC5NrPMRNAquoPNe2G0Vd3stBg9ajrPBGbB0G4vNZ/7G86BHCHtzDfdOz8cnTc0hff8AK0d/jgW34/l3KSTcXYeRkw/iRVpF9Pj5dzwKfIyIdw8R+Pw0Tq4ej64upsW6zgj5kChskHLCALXHeeD7duaQhV/G/DknEajh6oTOEh5g1exDeJ6ihxrj1+LSwS/Rt6kjbM1MYOFQCz2/34DzW3si/eUbeQWWo+JOeoJ1M7bhbrwR6n+5GRd+H4t2NWwgNhHDrnYneOzdiJlupkh/fQardj9HzitACXhyJQRuK/fg8NKxGNCpJbqNHInB9Uz4/toIYNpiEk54HcG26T3h5mwJsZEhTK2c0cNjAeb3toFA+g7X/3qE9/w78mLceDL+9ruHoGcbMN5FxJcWhwLOe2G3VeIjrPxuK7et9OAyfBmunJmD0e1qoKqVCcSWlVCnwzCsOXsAK3pwQSvhMTbMOQifzNSSghd/X8DTBMC6+7dYM70Dalgbw4jbzjZVa6LTp7Px+4KuqERpg5RRFDZI+WFcC58smoQ25lKEnVyOn4++Re5X1/MWc+cojvmkAhWa47MvO6JKjtP23BF0v2/g0c2Sf51d1LW92P0wGXrOfTFveitYqlc2JvUx+tOWsEIyfM7fQaDqCRl5U+9UxJm1xWcfO8FIUZpPenDt0BkNLDXsAoT2aNm5Fsy46jYuKBCROjQkEOgbwag4c4Zcwea90Nvq+gEceJICgV1n/DjvI7hkvw6nYFwdI74fjPrcxoi/fwyHueGV2NZim1eSlor0HEmGkLKNwgYpV0wajcHCr5rATBKGY/NW4fS7wuz1U+F/6zFCuQBg2ao/+tXS0rhBZI3a9e1hwP2ZPUskw/e6N8IkAtg1bgFXw1SkpKh1qSkQWleCtR6QFPQCAapn5gVsbPpw7twR9UwVRQUmzUBi9Dv4PrqLvw8ewOGHCfKdQ0ZSIpKK4gxQccrXvOu2rViOUN9Wr26wbQVYt+yJ9pW17zrFDTuhczVug6WE4v6TSD7QGqFqk1qw54pjLq7A579ehD/fZoSQ8oDCBilnTNBs6o+Y2swE6f7HMfu3K/l4lLk2iQj2i+SqMSHMK1dEBfWzEpn0YW5bQR42sktCWFAUWDPDsOMeaF65Iezt1Tq7xqg9dB9YExNpSgLiczQmMIKdo7WOZzV4Mi7snNyEKQP6oXbVxnBwbIvGbUZi8IQ5mLvzMeT3r6jeKF+S6Dzvum2rnFEkCaGB0Ujn+tjXcsp5BkqVkR1cHNhlrBREhsVn3mFi32cGln9WDxUQhWtLJ6FJ9W7oN30vrgUmF/oMGyElHYUNUv6IG+PrxWPR2CQdvnsXY/Fl7bez5kqWjoQEFhUMYFXZKo8KX0OlLUtDYiKrigQwta+GWrWqa+5q10DderVQt6Y1jJW3PHAU9Z0BzM0Ndf8ipwVg94Q+aDV8GXac90OSdS10HT4OHgsXYNexvTizto+i/YD87EkJU5B5L/S2SkV8fCrXRwgDI/3c17fICOZmLK5IkZ6SlhUkRHbovewg7nDBcmQzG4jiX+PCxjno2bAdOn5zHM8L/sQ5Qko8ChukXDJrNQmLPq0N4xRfbJ+5CdfiZJDpWq8KhDA0Yjc3piEqJEpD402lNMS8i+OOqtUIDGFmZsCFBgGsus7EmTuncPeu9s7r7Dx8VCQtCCV4fWgxfj4chLRKnbHk8g34ex/Bka2zMfuroRjUzQ11bYu94UUBFXDeddxWOU4gCYxhaWnIbak0hPuF5f4k2rQYBL9N4v7Qh4WtmdpZEkM4dv4EW69ex6u7m/DL0DqwRAzub52BfpOPIYAetEHKKAobpJyqgHYzZmFiXUMkP90Dj0XX8V5kCN2qWDEqO1pylYkU0QGBkD8iQxNZHPxeRshPp2c/ZhajWp1KMObeH+UfgHAd78YtuFg8ufAE4TID1B09BRObWeR4HkT4q2Bw+YubYQ1H+R9UQeddt22V824UM7g2rAoTrjTW3xehuT0YLiEEL99y0VLPHvUb2qrNn5IerOp2xXfbPXFj2wC4GkgQ8s9uHH5BaYOUTRQ2SPll2Qo/LBiMGgbJePj7Rux9laqlYtDGGNVb10dF7lsUe3MPtt7M/lwFpYR7B7DhYhT/SpUBXNo0h5MBN4zXAWy5VsDLObrKiMbr4Hiu2tSHubX6kTcn6TlOnHiBRO7PkhY1Cj7vhd1WenDu3AkNxGxb7cLCoyHQnFfS8O+f23AsUAoD13bo28iML9dGH07dP0bHylzMTX6L56/pWgopK5TfQO5fLvhT2CDlmADWXb/CwlHVoJ/wEAcOvtD5h9psOozAsAbGQOpL/PHNfOx7mf23VxJ9/8KsaXsQIraQnzVRvwgibjEEE1qZc3WUH3Z/Oxeb78fkqMTSo57hz7nLcOiVtsNxHenZoKarBfflT4T30dN4qLrQaWE4s2ABNj9Jke8cdGqykRCAU2uWYO7W2wjO7chfC4EkDUnJGUhP19xJWOOHQsx7YbeVUb2B+Lq/I/Sl4Tg581vMORWsdmksFf7HFmPyYi/ECe3Qfdo4tOE2rUIcbmzZhAOPY6B+Aiv+5QM8jeC2rWkVNHDh0gwhZRCFDVK+CazRY/YMDHPWQ0ZySo6KIE/ippi+4jO0NBcg8flhTGrbBS37TMN0j3kY/1FfNG37PQ5Iu2DKkBrcsbUGBtXx2eqZ6F9VD0m+J/Ftl65o0ukTTPx2CeZ4zMbonj1Qo+YA/G+zN6J1qfhzZY42EwahKVevxd1ejV7Nh2Hct4sw84vJ6NqiL4ZvS8WgKV1hJ59eficqxZvjC/G5xxYs/W4m5heg0W3E6Vlo5tAAdnY5O/sqfTHjUiw3VCHmvbDbigsQ/RYvxQ9tLSGLvI9Vw3ujnttIjJy6AD9M+QI93TrBfcxO3I8Vo9lXS7BulJPKmRcZEh7sxadt26F2i+EYNHEufvxpPqaMGIwWfdbhTmIFuE+djvF1cpyrIaRMoLBByiShiQlMDYxhIc575y2s2AVzfumL6qYGMDQ0hrmG9wj09WFgbAgDDXWvmfuXOHr6N4xvZg29pHA8vXwCG9fsxuHrYajQ4wccP/ETuttLuOpGAD0TY+irjcOgxhBsv/A7fhlYE5aIhd/dKziweQuWr9mPo9ffQOrUDl+vno0RztlblIgMDWFooIfcfkFe23yL3SZj+5ZP0d7BAClv7uPw5m1Yu/MSnkibYtbBNZjSyAJmxgYwMtbLZ9wQwsLRCXaG3F/iSqhVJa8nmGYRcuvERF8PBnrad0cy+W+XKBRm3nXaVsY5txUsmsHjuCcOzu6BuhbpePvsLo5v/wPrdpzFtX+joefaCTP2euLM/LawzbY4rI1GQ9S1luLtv/dw5sCfWLViO3b89QTRdi0xac12HPqxBSzyt7IJKXXoh9hI2SSVIF3CVRkiEfSE+dmDyyDNkIB7CwRC7j3ZanCun0TxQ1tsfNordwkSQl/DLyQWaUZWqOJUGRUr6HPVVjLuzhmM7st9UfmTP3BzTVvu+FwzSUIEXr8Ow7uYVOibWaGSUxU4WGi+tVUmUcyvkJsnzYuY93zLMpIRHRYC/5BEmFR0hLOjJYzZxLjKPUOxMtTWRW5kSIkIQYRBRVQ116H1i0zCTYv/Oxfqy1m4ec99W/XgtpXDRG5brdW+rSBJRmRQEALfxiHd0Bx2VarCyc4490bG0hRunt8i5G0UEkXmqORgBztrs//gqauE/HcUP8RmDj//APnlTHbHHYUNQopbxmts7jcA314RoPPq4zj+aVU6pVhSqW2rY9y2ohxAiG40hQ3a5xFSzOLvHsLOu/GAuBa6talIX7oSTH1bUdAgpGjQfo+QwsgIxrEVW3HiWUzmY6mzSBBzfxcmfbodj5NFqNpnHIbWpgaAH4yO22oIbStCikzmZZSxK9LRx3kpTPVt+V6EkDxJ/LGhz0B8fz0NVi510LhhLdSvYQtRXAie3b6NG95vkSgVwrzFZ9h3ZDo6WOe3/QMpcrStCCl2iekROBXwPXZ9q5/tMorI3MJirpWlJdr2qwhrI1eI9e34txBC8paOxIgwvPYPhP/rN/DzeYY7N7xw+95z+L1NgsCyJvp9Nx+71o5GE3OqvD4s2laEFLfo1EBEpQbA63QSoqNjcjYQnbm1ESwNKqOe9QD+LYSQfJNlICHyHUJC3yHsXRykJpao6OgE1yoWMKSLlSULbStCis2z98cQnRaMRZ891nw3yoaDX+Jp+J/oXW0J/xZCCCGEkPw7/XoG6tuNxhdD16rfjSKTD+Bi2Q0Z0nS8irkgf00IIYQQkl8sP7Ac4WzRlU8W3H8Vf2TdjWIgEnNpZDi8Iw8gPMmHLyWEEEIIyR3LDSw/sBxhqJfzBwizXaGsbzcS1Sy6UOAghBBCSL4ogwbLDyxHaJKjOVRzh89hZVIH10NX0iUVQgghhGjFcgLLCyw3sPygjcDRyUnm6uKCixcv8kUKT8P3ct1+6An14WTWCjbGNeW3xdJzOAghhJDyiT1HIyE9HJHJLxEYf0veRoNdOlE/o9Gpc2f4+/sr7kQRyO9G0Rw2mNSMeATEnEdQ7FXEp4UiPjUU6dIkvi8hhBBCyhN9oQnMDB1gZuAAR/P28ptLWJtPdephI9e7ytkAhBBCCCGayGT87SZ5oMsohBBCCMmXIruMkpIRjXuhG/E65gIa2gxDdYsu8nJCCCGEEFWsgajyThTWQNRIz1JenudlFBY0opJ80NZhGgUNQgghhGjFcgLLCyw3sPygTbawwS6dKM9o2JnU4UsJIYQQQjRjeYHlBpYfWI7QRKh8mii784S10aCgQQghhBBdKAMHyxFpkgRFId92lP2TeWaD3eLKGoPSpRNCCCGE6IrlB5Yj/KPP8SVZMsMGe5YGu+uEEEIIIaQgnMxay/OEusywwR7axW5vJYQQQggpCJYjWJ5QlxU2UkPlz9EghBBCCCkIsb6tPE+oywwb7DHk9MAuQgghhBQUyxGaftYkM2wQQgghhBQHChuEEEIIKVYUNgghhBBSrChsEEIIIaRYUdggpJBkUgkkEgmk+fulZUIIKXcobBCiSiZBcnw0wgJfw/fVGwSFxSAhTap86m5O6b5Y28cd9g49MeVkJF9ICCFEFYUNQiBF/MvzWDp5DJq5NIZ9pRaoXrcrGjfqhDrVm6OiXWO4NhmJTxacgneUhH9PFklqCpIT4pGQzheQAorB+ZkD4FqlBZxbzsapcL6YEFJqKQ7UZBQ2SDmX7I/9Xw1E3RaTMXf3LTyPSIeRpR2q1ayB2jWqwMHSGKKMJLx7eRf7l6zBvuep/BtJkQu/gz2ez/A2Ohrhz85h98UwLgYSQsoCChuk3JK9v415fYdh0u9PEa1XCZ2+WY4rz+8jNOgmnj38G/cfXYbvm0d4F3QOZzZNxkeN7WAqo4YZxUOK4AtHcSlUANcWDWEjeI/rey/BP4PvTQgp1ShskPIpLRB/fvkdlt+KhrByJyz45yROzP8YzauYQk/AD8MIRDCycka7MdNx4PxmfNnIiO9BilRGIP7eew8RsESD7u1Rz1KA6DvHcfJFGj8AIaQ0o7BByiEJ/Pb8itl/vYNE3AjTd6/EV83NoZoxNNIzgblYxL8gRSn1xTkcuBsDYcWWGDiiLwa1sIQg4RkOez5HzgcfE0JKGwobpPyJvYtN624iUmaMJlPmYFpLMd+jkGQyyJCO8HvHMPeTCejaug9athuNsR57cS1E+xF6epQvzm5dhslDRqK9ex+4dxqPUZ8vweYrYdDYQiQtBBe2bMDChZuw/WYEN800hN3xxM8TJ6Bb24/QqsM4TJhzBF4R2q9B6DzNXEjDvbD+66mY8KMnvOP4Qp0k48mRU3iUIIRDx75o7+yMXsNawFaQgn+Pn8D9eH6w3EgS4HthP+ZNnoRenfrBzX0guvX7Et+vOYvHERpa7uZn+PQQnN2wBgsWbMTWa+Hc5k2C74mNmDp8PPqN+AU7nyYrhuMU5fokpCwSODo6yVxcXTByWSxG1T7IFxNSdsVd+hltPt4Df/MOWH91C8Y7F+JsRbovVvYYiNl3TNFv3VqM8FuOr9bfRyRXXwm4GKB89obQsgV+9NyKmW6qwSYdPr9/g6Ezz8I/iQ0ogEAkhEDKP7NDaIo6YxbgyOo+cNKXv0Ehc5om6LNqNUYGLMeX6x8iSiLkjh6kmdPUq9wZiz1XY3J9Y0WBXAGnqZUEvpsmoMN3NxErsMPAncewa5Bd3meJVMXdxg+dJmKdrx3GHjqGjT0sgIhz+KTtFOwPc8D4w8ewvjtXpkXKqxOYMW4udjyK5eaGIxBCJJBBIl+gCuiy5jiOfVI188gq38Onv8TK7oMw+64JPlq3AWNfzMPEtf8igb1HzxVfnTmGha30inh9ElL67Xk+FHunm8Pfz5/7SnDfCW6HQGc2SDmTjJdXHyCEq2XEtdzhVrmoLotIEH1hE2bti0fnX3figd99hIXcwO1dn8DNkosA0V5YOWsvnqod5qZHv0e8eX2MmLcOl57exdtwb7wNOgfPWW1RUZgIn90LMfcUO3uhRl4gRdyVTZi+Iw49lu7F44AHCAu+hps7JqCZuRAZIRfxm4cnfNUO7As8TY1EqOLeGg2tjWBapTG6NLHWLWhwom4dx0nfNBi4dMIwdz5U2LbAsK6VIZKE4uze23inZWbS/Y/isz7T8fujOBjX6oPfPP+G/1tvvAvzwst7O7Hy0+ZwUGlmo+vwysmmPtyFH7dHocUXc/DnyT04tnEcmlVQ9C3a9UlI2URhg5QzKXgbGIU0rkqs4OQMewO+uBAUN6hE49rfwei6fie2TW2NmvYVIDa3R4NBM7B7RXfYczVwgvc5nPVTrfkFMG0xCSe8jmDb9J5wc7aE2MgQplbO6OGxAPN723BHyO9w/a9HeM+/Q0lRcXHTPB2Gvjv3YeskN1S3FUNsUQmNhnhg74qusOOmGX33BP72U72cUvBpamPceDI3jXsIerYB4110DG+ycFzeexVBEn249OqN5uZ8OSzgPqQDXPSkCLvkiXNvNNwEm/EaO7+Zj6PBUli0+QYnLq/CtB41YC82grHYApXrtMGk1VuwYUQVxY5O1+EzJeDJlRC4rdyDw0vHYkCnlug2ciQG1zPh+hX9+iSkLKKwQcoXWTKiYlK5yloIU2tzGPLF2UhD8Oe4Hqhdoy1q1szqalTviM6zbyCWHyw7AWy7TsZ33W3UvlTckX+XgehWlauEk0Lw1E9+Ep6nB9cOndHAUsPXUGiPlp1rwYyb07igQPllmexY3BCgYu+pmN7FivtLlRBVegxFL0dumolBeOSr2uihMNPUTqBvBKMCnCSSBl3F3kvhkBpVR7+B9aF6kalC84/Qp5YBZJH3sO90INRnJ+HuAWy5HgOZuDl+WDUJbhU0n1MRChXlug4vJ0+SqYgza4vPPnZCznuRimd9ElLWUNgg5YwQeiJWmciQmpCkuGafgwwZce8REvoWISFZXWhYKN7FajsZbohqbnVhr+kbJbaHo5UeN9o0xMWxoKOFNAOJ0e/g++gu/j54AIcfJsi/oBlJiUhSm1GBPF4YoWqTmrDTNE1jazhYKKYZn1A00yx6GfA7fRw33stgWr8nPm6g2raEI66HAR9VhzHicO/QP/BJ4cvl0uB/7Q4CUgGLVgPwce28GkToOjyPXWyGPpw7d0Q9U0VRrj7o+iSk5BJq3QkRUhYJjGBpacRV1VIkRUYhXtMXQFgJQ/84g1f+t+DPdQGBl7FvjPqp9Szy+ggmcKhqCY1XZfTEsK7AVfwcqVTtcoAsGb4nN2HKgH6oXbUxHBzbonGbkRg8YQ7m7nyMGPkwGmZSOU1HS64q1EDfHPaWirmRZBTRNItaii+OHXrMRQkjODesiOhH93Hz5r2s7tZTxDk2QDUugyQ8OoUj3ll3fwCJCHr5DsnQQ6X6NWCrbeNk0nV4VUawc7TWcFaDV1LWJyEljOqnXqevHCGlnxlqNHGSn66P/vc+nmu8JiKCiaUN7O1t5Z2djTlM8zwQ5mp/eQDQQVoAdk/og1bDl2HHeT8kWddC1+Hj4LFwAXYd24sza/ugEhunIs0UjQ8xTS0SH3MB4jF7ikYKnv7xAz7qMgzdug3P6rqOQN8pB+DDMgYXTP46+CjrEpYsBbGx7IyNCMZiI+6/edB1eJ5iLRjA3NxQ886yBK1PQkoyChuknBGhsltzuHKHqZLAK9h7NVL7JYZiJcHrQ4vx8+EgpFXqjCWXb8Df+wiObJ2N2V8NxaBubqhrW4BGELn6ENPUJg5eB8/ieQogrtYYHTq3RWctXadmDjBCBvxPH8dNZStLgSHMzAy4MJCGd69CFbej5kbX4fOlJK1PQko2Chuk3DFuNBCftLMApGE4uWQHbhboQVSFFYsnF54gXGaAuqOnYGIzCygutChlIPxVMOJYEiqyU/AfYppaRHopGn0KbND15/U4dWIHTmjpjv/5DbrYCJDBNyZVzJkYznUrwZh7Ffv6Fd7m+eQsXYfPjxK0Pgkp4ShskPJHzxFDZo5CMzGQ+PAPTP76MF7+18/EzojG6+B4rurTh7m1Wc52F0nPuYr2BRK5P4usmvoQ09RIhrBLR3HujQTCSu4Y3ME+1ytQoqrtMKKjLQSycFzZewWB8oaWBnDp2BY1WXuOOzvxm2eIlsa+SroOnw8lZn0SUvJR2CDlkpn7F9j8aydUFKXB/+AsdOz4LdZcDEK8+hO+ZWmI8L6J+6FF/GPnejao6WrBfQET4X30NB6qntdPC8OZBQuw+UmK/AtaZJf7i2uaCQE4tWYJ5m69jeBsd4xoIQnGP/IHdQnh0OEjtLPny7UR2KLDiPaoys3Y+1vHcPKVYiOZNhuBb/tWhp40HKdmfovZx4Og2oQU7KFnzy5g39UweWWv6/B5+hDbkJBSisIGKacMUWfSOvyzbSjqiWWIffYXPPp2QdWqbdG0zRD06jMKnVv3QG2nZnBtNQXzzoRCKjCEkdZbEnRljjYTBqGpmD2tezV6NR+Gcd8uwswvJqNri74Yvi0Vg6YoHszFVVXydxRecUxTijfHF+Jzjy1Y+t1MzL8sv/ciV2m+57H/Fjec0AGdhzSHDV+eG6vW/dDbVY+bcW8cPvZCERKEFTFw+RJ8624BWeR9rBndB/VajMDwz3+Dx9ffoH+HLqjV1gOegXx00HX4PH2IbUhI6URhg5Rjhqg+dAFuPDmEtf9rg5rWBpDEvcWLRw9x9fId3HnshzdRadC3qoa2w7/C9quXcWtpW66KyU5kaAhDEzHEudyxIjIyhhEbRuXeWLHbZGzf8inaOxgg5c19HN68DWt3XsITaVPMOrgGUxpZwMzYAEbGempVlQAGxsYwZOPU2v5QAH0Trj+bN5VhCj5NbYSwcHSCnSH3l7gSalVhT9XMTQqe/XMFfhJDmNXpjCEttf/mSTYVGmPIwLowN5Ai6PJlPOHPIgisWuLnE4fx5/SOqCFOQ/i/XjixawfWbDuJcw8iUaFZZ3Sozm51Ltjw8m1roAf5o1k0KPr1SUjZJKjq6CRzpR9iI4Q7SE9FdFgY3kZE432CFEYVzGFbyQGVbUygl0tNIZNIIOEOhgUikdZKKbdhZBnJ3HRD4B+SCJOKjnB2tIQxOwyQSZEhf5PyQWRZlOMTcuNTfeClKpmUG0bK3s5NU+2woiDT1E6GlIgQRBhURFXz7E0kNWHzniGVyecr/9PgcPMmkc+bgFtuYc7KOyMJb18HIjgyBSILWzg42MG2goH2I6p8DJ+f9cwU7fokpHRT/hCbn58/93VV/BAbhQ1CCCGEFBlNYUNr6CeEEEIIKQoUNgghhBBSrLiwIZP/X19ogsT0CL6YEEIIIUQ3LEewPKHAhQv+RvLMMxtmhg5ISA/nXxFCCCGE6CaBCxssT6jLChsGDohMfsm/IoQQQgjRDcsRLE+oywwbjubtERh/i39FCCGEEKKbwPib8jyhLjNsuFh2Q4Y0Ha9iLvAlhBBCCCH5w/IDyxHOFl35kiyZYcNAJEZ9u+HwjjyA8CQfvpQQQgghJHcsN7D8wHKEoZ4ZX5olM2ww9e1GoppFFwochBBCCMkXZdBg+YHlCE2yhQ2mucPnsDKpg+uhK+mSCiGEEEK0YjmB5QWWG1h+0EZQ1dFR5uriikuXLvJFCk/D93LdfugJ9eFk1ho2xjUh1reFKdcRQgghpPxhz9Fgt7eyu05YY1DWRoNdOlE/o9Gpc2f4+fnxjyvnOm1hg0nNiEdAzHkExV5FfFoo4lNDkS5N4vsSQgghpDxhD+xiz9Fgt7eyu07YzSWszac69bCR4zKKKjYAIYQQQogmMpniCaF5yedllFb8ZRQ7uoxCCCGElFOKyyjh/GWUWwW/jJKSEY17oRvxOuYCGtoMQ3WLLvJyQgghhBBVrIGo8k4U1kDUSM9SXt6pExc2/Lmwwf6n6TIKCxpRST5o6zCNggYhhBBCtGI5geUFlhtYftAmW9hgl06UZzTsTOrwpYQQQgghmrG8wHIDyw8sR2iSGTbYnSesjQYFDUIIIYToQhk4WI5IkyTwpVkywwa7xZU1BqVLJ4QQQgjRFcsPLEf4R5/jS7Jkhg32LA121wkhhBBCSEGwh4CyPKEuM2ywh3ax21sJIYQQQgqC5QiWJ9RlhY3UUPlzNAghhBBCCoL9rAnLE+oywwZ7DDk9sIsQQgghBcVyhKafNckMG4QQQgghxYHCBiGEEEKKlRD5+w0VQgghhJD84/MF+4fObBBCCCGkWFHYIISQQpJJJZBIJJDSmWJCNKKwQQgp5eLwZN8yTJ6yFkdfJvNl/6H0l1jb2x32Dj0x5VQkX6iLDzz/hPwHKGyQMiYVD5aMQI2qrdBq6jm85UvVpQUcwyS31qhWswd6TTsO3xS+B9GBcl03R1XHVmg7/Soi8zyyT8eTNeNR29EdLSf/jdAiOBMgC7mEBR6bsXvHWngsuYEIvvy/lJGaguSEeCSk8QU6KAnzT0hxo7BByp6UBERGRSA0SnOCkEXfwa9j5mDPswhkOH+MX375GDWM+J5EN/J1HYOo9xF4uH0Rll6L5XtoJ0iJR+T7SIS+T+VLCkdg1wA92lSBmbkTWnerC2u+vLQo7fNPSH5Q2CDlS8or/D5pGlY/TIJJvdH4fddktDDj+5ECMxCbwijlJf6YuQU34vjC/4q+C8bvuYCQN2fxxzCH0rdTK+3zT0g+0OealB/SSJyd/TU8TodD6NgbK/d6oIc9fQUKTwiHLoPRy1kPSY93Y9aax8j5A9PFTQiRSMD/XRqV9vknJHe0pyXlRDKerJ+Ozza/QIp1K8zZsxCjqxvw/UjhyJAmqotJM7qisigJ99bNx8aH1NCREJKFwgYpByQIOf4Lxvx8HZHGdfD5thX4uqkp308zaZwfzqyfjzG9B6Fl8z5o3/MLTFtxBk+jJfwQKtJCcGHLBixcuAnbb0awqhdhdzzx88QJ6Nb2I7TqMA4T5hyBV0QG/waONAp39m7FksUbsPrIcyTyxZpE3/fEisXrsXTLNQSqNEBMj/LF2a3LMHnISLR37wP3TuMx6vMl2HwlDLq2hpCGe2H911Mx4UdPeOt8GYRbYokBao6YgZ962UIY/wArPfbiaQEb3eq8XBl+OLlqAxYtWo/tt2L4Ql56CM5uWIMFCzZi67VwyGRJ8D2xEVOHj0e/Eb9g51O1UJQaDq9DWzB97Hh05badm/tAdOv/HWZvuQrfOCk/UC5k7P9SxPtewfrvp6JPp35wbzMU/T9Zhh033uo+/4SUERQ2SJkX77UR4784DF9pZQxcvga/dreFiO+XkwQRl5ajZ4PeGDRjOzyveOPfF764f+0stvw0Fa0bj8Pi27GsTskiSIL3/o347bft+PuZH47PGgW37jOw7OAN3H70HN73buDg8h/Qtc0X2KSs3ITmsE64jlW/rMCceftwR1u7Slk4Lq5ehp9/2YAjwaawlp+MSYfP71PQtFZvDPhmE3af9sKDf1/hmdd1HNu1Bd9+1BNtvjiFwHT5GPJBAj/PtZi/7QwOctNaeo6rlPk+OtF3xLDfvkZ3OyFir2/ErJ1+OoaeAi6XTIKXxzfg119340Koes9EPDu0FfPn78D5V29w2mM42g5fju0nruPC6Rt4Hs8PxgWE9zc2YkDDjug0fgk2HrmOW49ewuepN26eO46V0yaief3hmM2tG5XImIMkORw313zOhZRP8cOGM7hyzwdPHj3Auf2bMKVHD7T/5h+80Wn+CSkbKGyQMksgkyLR9wi+HLsON2PN0f6ntdg4xhmGfH9N4u+sw9ARG3HjvSFqDZuDM49uIezdAwTc34rZ3SpCFHkbCz/5DcfD1I5y5bWzFHFXNmH6jjj0WLoXjwMeICz4Gm7umIBm5kJkhFzEbx6e8JXXJyK49hmIDnYCZLy+iqNemtOGNPQWDl+LgFRcD0OG1oeYL0+Pfo948/oYMW8dLj29i7fh3ngbdA6es9qiojARPrsXYu4pdpYlP0So4t4aDa2NYFqlMbo0sUZBWw8Y1BiI+T+0hjVicHHRYux9lVvVnFOBlyuXBVX2Sn24Cz9uj0KLL+bgz5N7cGzjODSroOgbd3stBg9ajrPBGbB0G4vNZ/7G86BHCHtzDfdOz8cnTc0hff8AK0d/jgW3MxOKGhkSrm/Gl0u9UWnCYpznPjuhbx/C//E+rBtbm9t2iXi61QOfrvdBjotM+dtQhJRaFDZI2RV/H0sm/IrDQQZoOHUldk5rmFlZa5T0BOtmbMPdeCPU/3IzLvw+Fu1q2EBsIoZd7U7w2LsRM91Mkf76DFbtfg7VqwSKuiIa106Hoe/Ofdg6yQ3VbcUQW1RCoyEe2LuiK7hcgei7J/C3n6ICFlRuh1FdKkIoCcVFz0fcu9VJEHj2OK6Fy2DZsj/611a2MRHAtMUknPA6gm3Te8LN2RJiI0OYWjmjh8cCzO9tA4H0Ha7/9Qjv+XfkxbjxZG6+7iHo2QaMd9F+3idvBqg9zgPftzOHLPwy5s85iUANV540K/rlypKAJ1dC4LZyDw4vHYsBnVqi28iRGFzPBEh8hJXfbeW2ux5chi/DlTNzMLpdDVS1MoHYshLqdBiGNWcPYEUPLoQlPMaGOQfho/F5Gu9xcZ8Xasz9E6eXDYR7DVtUMBXDvnoLTNjwJw5/WQdGiMPNTb/jPD1Mg5QTyhxNYYOUWbHe/+DE4wTITJ3Qrksd2OTxaY+6the7HyZDz7kv5k1vBUv1w3uT+hj9aUtYccelPufvIDDbQTv7SglQsfdUTO9ipXZmQIgqPYailyNXiScG4ZGv8sjYCu1Gd4GrngRvLp7CLfUaNP01/j7EhRCBLTpww7no8eXQg2uHzmhgqWGBhPZo2bkWzLj5iQsKRKQOZ+UF+kYwKkzOUDKuhU8WTUIbcynCTi7Hz0ffIh+tHTjFs1yQsW2TijiztvjsYyeuws8u6voBHHiSAoFdZ/w47yO4aDr1ZVwdI74fjPrcm+PvH8NhbnhNxC0n4KdRrjmmAYEF2kz9DD3tBZAG38LR21F8D0LKBwobpMyyaDoKM0ZwO/5EH2z89FusfZTE99EkGb7XvREmEcCucQu4GqYiJUWtS02B0LoSrLlKPynoBQJUzqYL5PHCCFWb1ISdpm+VsTUcLLg3ytIQn5CamfbNW/RH/7qGkITcxJGb2dNGmu9FeN6Pg8ixI8Z0sVcLMCqkGUiMfgffR3fx98EDOPwwQf7FzkhKRFK+zyoULZNGY7DwqyYwk4Th2LxVOP1OucQ6KKrlErA1pw/nzh1RL0e74GS8usG2O2DdsifaV9a+SxQ37IROTtw2TAnF/SeRGgKUAZzbuaO6lgfECSs2QOuaJtxnIAa+z7Q0FiWkjKKwQcosqYkzhq1YiZ87WQGRNzFv7M84nP10hIokhAVFIY2LAWHHPdC8ckPY26t1do1Re+g+sGYI0pQExKueSpcnARM4OFpy1ZoG+uawt1RcBpFkqFRTpvUwdFh9iKXhuOp5D+F8MVej4enRU3iUoI8a/QagjfpjJWVcODq5CVMG9EPtqo256bZF4zYjMXjCHMzd+RjyexrkR/QfigmaTf0RU5uZIN3/OGb/diUfjzLnFNtyGcHO0TrnGQduu4cGRiOd22r2tZxyns1SZWQHVwcuLHDbJjIsnnuPOhNUcbXV3iZIZAFHB1Puo5KBuIg4De8npOyisEHKNIG4Lqb+vhif1jFCqt9RTBm1HFfea6isZGlITGS7fwFM7auhVq3qmrvaNVC3Xi3UrWkN4yL5iU991Or7MVpaSBF29SSuvuXHmfAvjp98hWST2hg0rCGyPeQ0LQC7J/RBq+HLsOO8H5Ksa6Hr8HHwWLgAu47txZm1fVCJVZryI/oPSNwYXy8ei8Ym6fDduxiLL+dxW2cxLZdiaAOYmxvm3OHJUhEfz840CWFgpJ/7DlFkBPMKLEpKkZ6SpuHMhggG+kLtZ6C4eJGSIpGf1RLqF8X1KkJKDwobpMwT2nfCgl0/yG/JTHj4ByZ89ieeqV9RERjCzMyAqygEsOo6E2funMLdu9o7r7Pz8JG85is8kUsXjO5oC7zzgudVxW2ncQ9P4S+fFFRo3h+DWUOBTBK8PrQYPx8OQlqlzlhy+Qb8vY/gyNbZmP3VUAzq5oa6tiWnIjNrNQmLPq0N4xRfbJ+5CdfiZJBpXG0faLkExrC0NOS2ehrC/cJyf/JpWgzevGUfHH1Y2JppOIPFhRAJt3z8qxzSYxHyjr3fgHu/OfdfQsoPChukXDCuOwpbto1FfRMJ3v2zEKO+PYM32a6oiFGtTiUYcxVGlH8AwrVdbSkOAnt0GdUOVQTvcdPzNkKlMbh94BL8063QdnRXVM9Wq8XiyYUnCJcZoO7oKZjYzAKZ7UblMhD+Khhcnf6BL6MoVUC7GbMwsa4hkp/ugcei63gvMtTwnJMPtVxmcG1YFSZcRIj190Vobg8iSwjBy7BUQM8e9Rvaqs0fk4g3L99lu0tJlTTcB14B3PuF1qjTwI7CBilXKGyQckII2y7fY9eiLqgkSoPvbg+MXXgPMZn1lgFc2jSHE1cDJHgdwJZr/+2THK3bDcLHNfQQef0ETt+4gn0XQiCr0g5julfO/iXNiMbr4HiuatSHubWGo+uk5zhx4oX8iaQlIWrIWbbCDwsGo4ZBMh7+vhF7X6XmrKg/2HLpwblzJzQQs+2+CwuPhkBz29M0/PvnNhwPksLAtR36NtL0631peHniBO5q/Oik4MmeXTj3Tgo9p9bo39yCLyekfKCwQcoRQ9SauAjbptaDGPG4u+wbfL7DL/NIVNxiCCa0MufqDD/s/nYuNt+PyVHxpEc9w59zl+HQK11uh8gHs4YYMqAmjKIf4fCWo7gWLIALe+iXLd9fSc8GNV0tuC9uIryPnsZD1fP+aWE4s2ABNj9JkX+xdWrakBCAU2uWYO7W2wjO7ei+QASw7voVFo6qBv2Ehzhw8EXOyxXFtVz5YFRvIL7u7wh9aThOzvwWc04Fq90pkgr/Y4sxebEX4oR26DFtHNpwHxNNUnz249sfjuDfBNVIlAq/g7/gk2WPuaWrgFafjUE7K74XIeUEhQ1Svggs0fHnlVjcryJEGW/x1/dfYMbJd4pQYVAdn62eif5V9ZDkexLfdumKJp0+wcRvl2COx2yM7tkDNWoOwP82eyO6iCs8wBgNB/dDU3EMrnteR5hBDfQf3hQ56zRztJkwiBuOPfVyNXo1H4Zx3y7CzC8mo2uLvhi+LRWDpigeIMYq+fyR4s3xhfjcYwuWfjcT8/NqyFkQAmv0mD0Dw5z1kJGcouGR38WxXPnEBYh+i5fih7aWkEXex6rhvVDPbSRGTl2AH6Z8gZ5uneA+Zifux4rR7KslWDvKSUN7DcYa3T7pDnjOQsem/fDRuNn4/quv0Zt7f6tPDsInUYSq/X/A6v/V4bY2IeULhQ1S5ghNTGBqYAwLseYqAYYuGLdhBb5zt4Rhxhsc/ukXrPdSPDTDoMYQbL/wO34ZWBOWiIXf3Ss4sHkLlq/Zj6PX30Dq1A5fr56NEc6qrQ4EMDA2hqGRcS4PxRJA34Trb2gIQy3DGNTsjhGtFKfXxU36YkgjzVWS2G0ytm/5FO0dDJDy5j4Ob96GtTsv4Ym0KWYdXIMpjSxgZmwAI2O9fFbLQlg4OsHOkPtLXAm1qrDbO/Mnz3WtQlixC+b80hfVTQ1gaGgMc7X3FGa5BPr63DYwhIGGBRaxdW6gh1x/wd2iGTyOe+Lg7B6oa5GBt8/u4vj2P7Bux1lc+zcaeq6dMGOvJ87MbwvbHHtNAfSMuGmYiGHd6n/Yv+MzNIc/Lh/ejw2/n8KVZxFIFbug75xtOP/HMNTS8ByO3OafkLJAULWqo8zV1RUjl8diVO2DfDEhpZhUIr8rQCAUQS+3GkYmRQY3HCMQCiESZh9WkhCB16/D8C4mFfpmVqjkVAUOFhpun+TIJBKwUQlFIqiNJpOMmy+JlE1LxE2LL1SVEYAtAwZj2kUBuq71hOdEx1x+MI4bX0YyosNC4B+SCJOKjnB2tIQxG69yuQTC3Jc/GxlSIkIQYVARVc1zNn3USrmuueXW07bg2cggzVCsK23bR/fl4sbJrVh2JzKbD/VR5mfbZCNJRmRQEALfxiHd0Bx2VarCyc44923BTyNz+tw43gUEICA8FcY2leDsbI8K+tomnvv8E1La7Hk+FHu/M4efnx/3oRZw/+c6ChuElAxJ91ahW8918Lbogx3XV2FQRap1CCGljyJsVODChj8fNriwz/cjhHxQMbi+4y88TTZE3WGj0Z2CBiGkDKGwQcgHJ0X0tW349VAQJLZt8OWkptmfGEoIIaVcZtjQF5ogMZ1+95iQ/0r4hfX48utf8d2EUWg9cDMeJNuj7zwPDHHKrXUAIYSUXCxHsDyhLjNsmBk6ICE962egCCHFSxbtg5N/7MSmg14IFrli6NLN2DTWWfsPeRFCSAmXwIUNlifUZYUNAwdEJr/kXxFCipt1Nw/89c8unL78D3xfncL2/9WHOTXVIISUYixHsDyhLjNsOJq3R2D8Lf4VIaS46ZlXRoPWrdGhhSsqiunSCSGk9AuMvynPE+oyw4aLZTdkSNPxKuYCX0IIIYQQkj8sP7Ac4WzRlS/Jkhk2DERi1LcbDu/IAwhP8uFLCSGEEEJyx3IDyw8sRxjq5byfLjNsMPXtRqKaRRcKHIQQQgjJF2XQYPmB5QhNsoUNprnD57AyqYProSvpkgohhBBCtGI5geUFlhtYftCGf1y5Cy5dusQXKTwN38t1+6En1IeTWSvYGNeEWN8Opvrqv3lNCCGEkPKAPUeDPSaD3XXCbiphbTTYpRP1MxqdOnXiH1fOnlie+dsoOcMGk5oRj4CY8wiKvYr4tFDEp4YiXZrE9yWEEEJIecIe2MWeo8Fub2V3nbCbS1ibT3XqYSPHZRRVbABCCCGEEE1kMhn/V+7oMgohhBBC8qXILqOkZETjXuhGvI65gIY2w1Ddoou8nBBCCCFEFWsgqrwThTUQNdKzlJfneRmFBY2oJB+0dZhGQYMQQgghWrGcwPICyw0sP2iTLWywSyfKMxp2JnX4UkIIIYQQzVheYLmB5QeWIzTJDBvszhPWRoOCBiGEEEJ0oQwcLEekSRL40iyZYYPd4soag9KlE0IIIYToiuUHliP8o8/xJVkywwZ7lga764QQQgghpCCczFrL84S6zLDBHtrFbm8lhBBCCCkIliNYnlCXFTZSQ+XP0SCEEEIIKQixvq08T6gTsmd/sY49hpwe2EUIIYSQgmI5guUJRbbIerpo5pkNQgghhJDiQGGDEEIIIcWKwgYhhBBCihWFDUIIIYQUKwobhORFJoVEIoFUmr+fUiaEkUklis+Nho9Nbv0IKYsobBCSKwl8/5iMOhWboN6EvxCarXKIw5N9yzB5ylocfZnMlxHCSffF2j7usHfogcnHw/lCXma/nphyMpIvzC/6zJHSicIGKQVS8WDJCNSo2gruU8/iLV/6n0lJQGxSEhLV9u2ykEtY4LEZu3eshceSG4jgy0sW5bprjqqOrdB2+lVE5nk0nY4na8ajtqM7Wk7+Wy1glQYqy6zaObrBpWZHNG4xAD1H/Ih5G//GrddJkPLvKmqS1BQkJ8QjIZ0vUJFbv9yUjs8cITlR2CClA1fhv4+KQFhUKl/w4QnsGqBHmyowM3dC6251Yc2XlzjcuouMikHU+wg83L4IS6/F8j20E6TEI/J9JELfl5z1rRPlMqt276PwLiQYvv8+wbW/DmDJ9C/RtYE7Gny0GMf8U/g3lmyl5jNHiBoKG4QUlL4Lxu+5gJA3Z/HHMIcS/2UyEJvCKOUl/pi5BTfi+MIyzrb3r7gTeB+hoQ8QGnIPr30v49Htvdi7agqGu1eEMZLw+tJWjG49FDP+iSi2sxxFppR95ghRos8qIYUihEgk4P8uyYRw6DIYvZz1kPR4N2ateYycPwJd9sj0xbCxMYe5eQWYW1jA1qEKajRww8efTcPvF67g+T8z0cfRALL4f7Fx0vfY8LQ0nOEoLZ85QrJwYYOaQxNS9smQJqqLSTO6orIoCffWzcfGh+W9gaEINq0/xa7jP6GXvRDSyJtYteQiwmiXSEjRYd8nrqMzG6R0SwvBhS0bsHDhJmy/GcGqVITd8cTPEyegW9uP0KrDOEyYcwReERn8GzRLC/fGoSWzMbTnQLi79UOXATPw2/7HCE+XQabt/sQMP5xctQGLFq3H9lsxfGF26VG+OLt1GSYPGYn27n3g3mk8Rn2+BJuvhEHX1hDScC+s/3oqJvzoCW+dL4Nwa0ZigJojZuCnXrYQxj/ASo+9KMyBvDTOD2fWz8eY3oPQsnkftO/5BaatOIOn0RJ+CCYJ/x7djqWLN2LNMV/ulQaxT3GAW4+LVx3F/Si+TFXCC3iu4fqvPIhroarjLhpGNYdgwffuMIcUYf/sxuGXmqeRv+XVkYz9ekQ6wu8dw9xPJqBr6z5o2W40xnLb5lpIGj+Qinx85ggpiShskNJNkATv/Rvx22/b8fczPxyfNQpu3Wdg2cEbuP3oObzv3cDB5T+ga5svsOmppiP5dAQc/hFtGwzG+Hn7ceqaN57+64M7Zz2x8JNhaDVoFa5ou/1FJsHL4xvw66+7cSFU/baCdPj8PgVNa/XGgG82YfdpLzz49xWeeV3HsV1b8O1HPdHmi1MIzPfdCBL4ea7F/G1ncHD1Miw9Fy4/YNCZviOG/fY1utsJEXt9I2bt9NM59LB5ibi0HD0b9MagGdvhecUb/77wxf1rZ7Hlp6lo3XgcFt+O5efPGBWSbmHtL8sxb8kp+GjYBDF392LeTyvwy5w12PkwZ4pK8jmJJXNXYNGffhBWEPGlRUkPNT4ehPY23J8Jfrj+kIVWVbosr24y4l7jxOwxcOv2PZYduI473i/w9MFtHFkzB71bjsOiu2oXu3L9zBFSclHYIKWffC8vRdyVTZi+Iw49lu7F44AHCAu+hps7JqCZuRAZIRfxm4cnfNX2z9GXl2DY5AN4liBClZ7TcOD6Zbx++xjBr/6G57xOMLm9E6tPBGuvkHOpYdKj3yPevD5GzFuHS0/v4m24N94GnYPnrLaoKEyEz+6FmHtKvWLThps/99ZoaG0E0yqN0aWJNQp61d6gxkDM/6E1rBGDi4sWY++r3M/6qIu/sw5DR2zEjfeGqDVsDs48uoWwdw8QcH8rZnerCFHkbS6o/YbjYay5pQCVWnVEI3Mgxe8ObgSqTysej894IYQNKnmHO1f8kajowctA0C0vBKSKULVde9QX88VFTGBbD+7Vjbm/4uD7ODjbGRjdllcXEkRf2IRZ++LR+dedeOB3H2EhXEje9QncLIWQRnth5ay9eKr+4StIqiHkA6OwQUo9xb43GtdOh6Hvzn3YOskN1W3FEFtUQqMhHti7oivsuJo5+u4J/O2nUtklPsLaH/fjWbIeXEatxPn9U/BRkyqwEZvAolIN9Ji+Dmd/7wNBUBhYRlH9ueS8CWDaYhJOeB3Btuk94eZsCbGRIUytnNHDYwHm97aBQPoO1/96hPf8O/Ji3HgyN//3EPRsA8a7FOYI3wC1x3ng+3bmkIVfxvw5JxGY3ysBSU+wbsY23I03Qv0vN+PC72PRroYNxCZi2NXuBI+9GzHTzRTpr89g1e7nYFdpRI7u6NnQFEjwxaXbb7Pf8ZHwAv9cDYFZg/Zwc8jA6+t3EKB69YBbR15XXiFBaA/3HvXAZZbioW+OyvYsbEiQFJ0g395yBVje/JDJP0rcZ/bvYHRdvxPbprZGTfsKEJvbo8GgGdi9ojvsuc9sgvc5nPWjMxik9KOwQcoAtucWoGLvqZjexUrtiF+IKj2GopcjVzknBuGRbzxfDsTc9sShJ8mARUtM/b4rqurzPTKJUImNs7MF/1oXenDt0BkNuCPUHLiKs2XnWjDj5jsuKBCROtQlAn0jGBXFlQTjWvhk0SS0MZci7ORy/HxULQRoEXVtL3Y/TIaec1/Mm94KluqnV0zqY/SnLWGFZPicvwP5iQy9qujQrQZMEYvHF7yzPYgqyecKLvoJ4NjcHU2rGiHh+S3cDlZJPu+f4qJ3LAR2TdCrWUG2Q37pw9TUgPvsyJCWlAxl3inQ8uabALZdJ+O77jZqO2IRqnQZiG5VuQ2dFIKnfuXhviFS1lHYIKWeQB4vjFC1SU3YafpEG1vDwUKPyyRpiE9I5c9PpMD/5kOEcPWaZcu+6OXK9ddEZIP6jSrBkPtTMZ0CkmYgMfodfB/dxd8HD+DwwwT5ly8jKRFJhWhfWBgmjcZg4VdNYCYJw7F5q3D6XV5nbpLhe90bYRIB7Bq3gKthKlJS1LrUFAitK8GaW51JQS8QIM92+qjeqR1qGMnw/uENPI6Wj4yTipcXbsBP5ogOA3uij7sjDGN9cOHe+8xzSHFPb+LeO8C6WUe0sOULi4MsFbGxKdx0RTC1Muc+TUxBlze/DFHNrS7sNX1mxfZwtFJ8ZuPilJ9ZQkovChuk9JNnABM4OFpy1ZoG+uawtzSQ/ynJUB6/JyHY/z13BCuEeeWKMNf6TdBHBRszzePNi4yrrE5uwpQB/VC7amNu/tqicZuRGDxhDubufAz5vQSK8+kfiAmaTf0RU5uZIN3/OGb/diWPR5knISwoiltnMoQd90Dzyg1hb6/W2TVG7aH7wJqBSFMSEM+fIjCq1Q6dXA2QEXwfl3z4FhFpr3Hp/CtkVGuDXi0c0bRbMzjqxeDRhadQ3JSSjOdXHnCB0AyNejRHpUJkvTwlv8XzQDZfBrCuYsWHjYIvb14Eys9sVUtuihroiWFdQRGApVJd24IQUvJQ2CDlE3fEmJiYzlUj+jC3t5CfuShSaQHYPaEPWg1fhh3n/ZBkXQtdh4+Dx8IF2HVsL86s7aOoPBW1zocjboyvF49FY5N0+O5djMWXc7mdkl9nLN2Z2ldDrVrVNXe1a6BuvVqoW9Maxsrbhk1ronv7ytBLD8HNa4HyBrfpr2/inydpcOzYCY3MAIuGHeBWCXjrdQv/sjME6cG4fSMIqeJa6N7OAcVxH4pSWqAXbr7mkoKBI9q3d1IEgMIsb75w2/4Db35C/isUNkj5JNCDgSGrvtIR8zY6l9s/0xD1NjbzGn7+SPD60GL8fDgIaZU6Y8nlG/D3PoIjW2dj9ldDMaibG+raFmfVqRuzVpOw6NPaME7xxfaZm3AtTgaZpkpQYAgzM9auQQCrrjNx5s4p3L2rvfM6Ow8fZZ6OEKNhTzdUESXj5ZV7CMqQIOjKFTxJskfrnnzDT6v66NrMCumBd3H5ZTIkoY9w2ScR4nod0MGpONdXLG5sPQivBMC4Tmf0qcsainIKtbyEEFUUNkg5ZYrKTlbcEawU0X7+eKetkaY0Bv4vIuRhI/93o8TiyYUnCJcZoO7oKZjYzALZW4RkIPxVMLg6/QNfRlGqgHYzZmFiXUMkP90Dj0XX8V5kqOFMghjV6lSCMbfOovwDEK5TY0jAokkntKooRPzT6/AKfINrZ/9FvEML9FY2/BTYwK17XVimvMb1G28Q8uAGvGMM4dqxFVyL/NSTkgRvTy/Hdzv9kS60x0ffjYFb5u21hVteQkgWChuknDJGzXaNUImrUePu7MPvtzW37Eu4fwAbLmt6rGUuMqLxOjhecYnGWkN7j6TnOHHihfx5EiUhashZtsIPCwajhkEyHv6+EXtfpaoFJMYALm2aw8mAWy9eB7Dlmo5PsLRuhN7uNkDUU5w79Q+Oe8XCvlUXuLGHackJUblVW9QVJ8Hn0lWcZXeu6FVBhy7VYcIPUaRk3HT2/IiPJuzDixRD1Bw/Dwv726lc2Sjk8hJCMnFhg077kfLJqs1wjGhoDKS+wvZp87H3RfbHWyb5/oVZ0w8j2spafpSf77tR9GxQ09WC+3IlwvvoaTxUvXMxLQxnFizA5icp8qSvU5ONhACcWrMEc7feRnCR/16YANZdv8LCUdWgn/AQBw6+0PhDbeIWQzChlTm3HH7Y/e1cbL4fA/WbadKjnuHPuctw6JV6Hxu49awPK1ksfK974XmMBZr3agI7vi+j7+iGzrWNEOd3H1efRgCO7v9v704Am6gSN4B/Se82PSmlFNpSbhREUIECct8ICigiKIqLCIKLKCggirIKCiIioHIogoKA5VCU9a/IsbooqIB4oJRy00I5Wtr0bpL/e5NpSdOkNKWzpPD9aMnkzWTmzZt05stcQfemAWpf1+lM+cjOKURBgfjNz0eOMQOpRw7gq+VvYGjrDogflYCDRh80GPwSPnm9mxI+bV3d/BJR0WqTezboxmVojvFzR6FtiA5ZBxPwePtuiO/3FJ6ePB0P9e6LZu2ew3pLJ4y8uy7Uo/jlFIx2IwahpQHI+HE+et9+Px5++jVMfmI0ut3RD0OW5WHQWOuNxor/Eq/IjJOfzcKYKUsw55nJeLWsEzkrSlcNPac9i/vjPFGYkwuHRw286+Ox+ZNxT7SnCGNf4Omu3dCi8z/w6NOz8eKUaXiwV080aDgAjy8+gLRSs6ZDVNuuaBGSi31f7sDJoOboE2+7J0HwjUPHO2OgT/oG63/KR1R8R9x6FXfyOrdlKm6LaoaIiGaoLn4jIlsirtlADBr3Hj774xL0NW7FiIXrsPOD+9DY0e6Tq5pfIirCsEFVgt7fH/7efggOsD8ooYO3nx98fP3KuNmVDl7+or+PD5RzQm0EtR6HhC9n4KEWofDMOYsD277A4gWrsPGHMwjp8QwSNkxDr3oGBIrx+1uvhyxB5+Ulpu8Db7sNjaHVaCxfMhIdoryRe/IXJCxehgUrtuM3c0tMXfc2xjYPQaCfN3z9PMsZN/QIiYlFhI/oMtREo9rlP7Ag2y5AtF2I4coX8Ooju+LFGf1QP8AbPj6ivR28xrvBfVj+7fuYMbAhQnEJSXt2Yu3iJZj79hps/P4kzLF3Yvz8aXggrvQC0dduJcJXGHy9fBDZphva17JfBfmjSbc2qCum6+1fE+1634IwtY8rrPPsBR8vD+h0OuVX7+EN/6BQRNZpjA6DH8Ps1Rtx8K8ELBxxE4LLWAgVnV8P+X7zN6DUW1Yo6lfWIvGQ72k5jN21sc7ec0TuTFc7OsZSr15dDJubgWGN16nFRG7GbEKByQKd3gOeHiXXshaTCaKX2Jh4QO9kBWwRrzeZxRtevN7DYcQ2wZhyHEknLiLPNwy146IRFaRuCcRrldtz6PR207aIXmbIqx11Ytp21VJYCnOQlnIaR05nwT8yBnExofCT07eYUSgrXWqcZbEg99xpnPOORHRw6TMqnCpqO1FHT2cNVIKYr0Jrmzpqb1sm4zkcO5aCs+l58AoMQ83Y2ogK8Sn7U0xRe+rFvDusj5y+aFfRpfcUy9Ra6Bp1nm3pxPQ8xMIvb2s74sr8Fr0vHb03yupXxPEwV37PEV1rq/4ajFXPBCEpKcka9uU/hg0iIiKqLI7CRoU+NBARERGVF8MGERERaao4bHjp/ZFVYPt9jERERETlJ3OEzBP2isNGoE8UjAWp6jMiIiIi1xhF2JB5wt7lsOEdhfM5h9RnRERERK6ROULmCXvFYSMmuAOOZ/6gPiMiIiJyzfHMXUqesFccNuqGdkehuQCH079VS4iIiIjKR+YHmSPiQrqpJZeJsGG98Y23hwFNI4bgwPm1SM0+qJQRERERXYnMDTI/yBzh4xmoll5WvGdDahoxFHVCujJwEBERUbkUBQ2ZH2SOcKRE2JBujxqDMP8m+D55Hg+pEBERkVMyJ8i8IHODzA/O6GpHR1vq1auHHdu3q0VWv6euFr9r4Kn3QmxgPML9GsLgFYEAr+rqEERERHQjkffRkLfJkFedyItK5Dka8tCJ/R6NTp072383iuOwIeUVZuJo+lacuPQfZOYnIzMvGQXmbLUvERER3UjkDbvkfTTk5a3yqhN5cYk859OefdgodRjFlhyIiIiIyBGLxXqRyZXwMAoRERGVS6UdRsktTMPPye/iWPq3uCX8ftQP6aqUExEREdmSJ4gWXYkiTxD19QxVyq94GEUGjYvZB9E+agKDBhERETklc4LMCzI3yPzgTImwIQ+dFO3RiPBvopYSEREROSbzgswNMj/IHOFIcdiQV57IczQYNIiIiMgVRYFD5oh8k1Etvaw4bMhLXOXJoDx0QkRERK6S+UHmiCNp31gL5IUq6sUqxWFD3ktDXnVCREREVBGxgW2VPGGvOGzIm3bJy1uJiIiIKkLmCJkn7F0OG3nJyn00iIiIiCrC4FVdyRP2isOGvA05b9hFREREFSVzhKOvNSkOG0RERERaYNggIiIiTTFsEBERkaYYNoiIiEhTDBtEVYXFDJPJBLO5fF/pTFWbxWyyLm8ubroOMGwQVQkmJH4wGk0iW+DmEZ8jmRug61tBIhb0bYMaUT0x+rNUtZCo6mLYoGvPfBLvD+6I2JhuGPJBEgrVYqeMv+Dl7u0QU6cfJnyVphbeAHKNuJSdjawc9bnbycPe2Q+gQXQ84sd9gzNqqb38o5swqlVb1GnYE70nfIbEXLUHlWDKy0WOMRPGArWAqArTF923nOhasmRn4PyFVFzM0qklZTEh+9wFXDifhkyTWkTuQQSi8xfPIfmi4wRhSduNfw1/Eav+OIfCuLsxY8bdaOCr9iSi65KMGdyzQUT/G7mH8f6oCZi/Nxv+Nz+I91eOxh2Baj8iuq4xbBCR9szn8fW08ZiyJRX6mD6Yt3oKetbg6ofoRsG/diLSWA5+WzQRjy3+G7nV4vHiqll4sL632o+IbgQMG3TdyjuzD2tmTcV9PQei9R390OWe5zBr3e84V2BC0lfLMXvWQsxZuRcXHZy3VHAxEV8vfQOj7xuKDm36ok3nRzBszGws3pmCPHWYEvJP49sl72DWrPewfNc5WJCPlN0bMP3REeje/i7Ed3wYI15cj5/OlX36a37qAXw6exoG9xqINq36o+uAZ/HKml+RWmCB5QrXQLpc5zKYU3/CovHjMOL5DTiQoRZWiAmnP5uBh6Z/j/N+TTBm2ZsY3zJA7edYRdp+q23bm41I3LIMT947BO3a3IOeg1/E21tPIbu4+UxI//NrvDF2FHq064Pb2z6AoZNWYsdJB2O3Xa4/nBfL1YzMxB1YOHEc+nbqh9Zt70W/EXOw/LsUlHWea2UumyJajJNIK7rataMt9erXw7C5GRjWeJ1aTPQ/ZD6JZf37Y/x2E9q9tglbnqwLT7WXQ8Y9eK79cCw8HI4H1m7Gsr6hao8i+Ti8Rmyw/7kRf2dZtzA6ncjVFrPYWHiiZvfHMfnmPXj+rZ/g02cOflg3ALWKz0stwMH3n8LgyV/jiLJ10kHnoYfOrN7vQB+AJg/NxPr5fRHrpbzAqiAR80SombbbH33fmo+hR+fiyUX7cNGkF4neXHyvBM9aXfD6hvkY3dTPWlCsAEcTXsL9Yz/FH0azUqLTiUpZRMgQdY7sOhKTm/2CabLOfefix7V3I+pq6+yUCYnvjUDHZ3bhki4CA1dswspBEWKsV5KHvTPuRdfXDyLo7nnYvbofAn5aiIH3zMeurCgMXPAhlj0UBx916NIq2vaHMK/HIEzb448+s19Fz1/fwPOrDyNL1lhpP0EXhNbPLsb6aU1w7N1JGPrCVpwQW2S9GMQshpH0Ya3w4oYlmHSHQXmusFmudy1cgnEZ7+DxGdtwPNeiLB+L+lro/NDkkTnYMK8XYkq08dW/n+7+cDNW32f7jdyVvbyJKteqvwZj1TNBSDqcZF2PiV/u2aDrzoWtM8VGe4MIGh6I6jEea77bhqMp+3Eq8Uusf6kjvL//AAu/PiMiiWMFaReQGdwUD7y8ENt/34MzqQdw5sQ32DC1PSL1WTj40Sy89KXce2FHKTAjY+d7mPhhBnrOWY1fj+5FyqnvsOvDEbgtWI/C09vwypQNSLS7nDFtx2zcP3qtCBoeqN1rAtZ+vwPHzvyKU4f/jQ0vd4b/jyswf/Mpp59YK1xnh0Qd2rTFLdV8EVD7VnRtUa0cQaMknQh2WYnr8eTwhdh1KRgdXliAd8sMGlZXNx8mXNq5AnP31MHzW7bjuGi/E3+uwZv31YGfJQO7F7yK2QvnYtTL38N34Ax8K8afnLIbBzZPRI8oT5gv7sGbL3yKvxy+MSzI+mEJxs7cixqPvIat+39ASuo+JO1fjYWPNEEgcnBw+VSMeucv0VVS5S4bKy3GSaQlhg26vhj34q1pYoOR64kGjyzA9nVPol/LGFQP9EdIVCP0mvQOti7tJT4Mn1TCRumVsQ4Bd4zC5p/WY9nEXmgVFwqDrw8CwuLQc8pMvNonXHyCPIvvP9+PC+oriljHlYbvtqSg34pPsHRUK9SvboAhpCaa3zcFq9/shgix1U7bsxn/TrI5nJK1HwueX4M/cjxRd9g8bF0zFne1qI1wg6hzzQboOXEhvn6/L3QnUsRnWjkd+1pXvM7O+N06WtTxZ5z44x08UtdDLXVB5i+YPeJfSDjhjVvGzcOKCbfAZn+BE1fT9rJN0vHf78wYs3o+/tkhGtVE+4XF3o7HF83F+BZ+QPbvWDB1FS52fRkb330AbcT4AwPDUK/LaCx9qz+ixdowY99WbDte8npq686Li9i+Zi8avbIGW+YOQnyD6gj0NyCyQSuMWPgxPh3fBH7IwH8XLcXXqbbLp/KXjTbjJNIWwwZdV9J3b8Smg+Lzf9DteOzJTqhdajeyB6L6P4Up3e0PvRTxRL2OXdAs1MGfhr4GWndpJD7FWpBx4jjOl7rZktzI6BDZZxwmdg0TXbb0qN1zMHrHiA131gnsT8xUy0Wdf9yAT38Tn4dDWmPcpG6IdlDnmnKcXULU5/aups7O6bx84VuBnCFdOvB/2PyrEZaAWNzZtQnCy7WmuZr5kK3tgZj+/8DQm+z2nwTcjEGDGsNfdFp8G2P4hN6oY9fG4W17o1MtMd2sk/jtqFEtLWIND4GtHsYLD9YTocKOLhjtnhipXF1jTv4Rn+9JV3tIWiwbbZY3kZbKtQogqhrycOSHX5FcCITG34P+jZwcsPaohsZNayi79K94eMBciKy0s0jcvwf/XrcWCfuMyh9NYXYWsu1uKKZTxuaL6BYNEeHoL8uvGqJCPMW2Kx+Zxjx1E5aLI7v24bQYV2jrfuhdz8nZKh7haNq8plrnK9TahTprJaTlMDz7QD34Zh3EuyOfxoL92WofF7g8Hz6IaVYHpSOZJ8JqhSshQVetMVrVLxUXxEtDEREkl00BsrLst9Cyvb1R5854NHDwUkkf2Rx3NhJxxpKGP/eeLHUopZgWy8YNljfRlThaJRJdI5bLJ9xdgXUoHfTyDL9iWTiVdF5EDj2Ca0UiyOk22QvB1YPE/05YcpD4xXsYO6A/GkffiqiY9ri13VDcO+JFvLTiVyifWx3VU5mevxg+1PG4vYJRI9R6yaep0HoSKJCNU0cuIF+tc7DTv0gvBIUHVn6dNWL2j8P9b87D9M5hwPldeHn4dCQcv+KN6K9yPvwQXsMgokVp3gH+8BHLx6daFGrIXRz2vAJQTYYNmG2WjZU8vw0IQEzDSBElnfAIQq1If/EWMCH7UnbJW+5rsWzcbHkTXQnDBl17Om8E+MsVvQlZGTlX/m6Uwlxk5YsVqd4XwQabza/4VGo05osg4i0+yYY53zAonKyI84/ioxF9ET/kDXy4NQnZ1Rqh25CHMWXWTKzctBpfLeiLmnLjY90CXT1LvvJJ2iIDUI2QK55A6dD/us7lpDPchHHvv46RTXyRl7QRY4fNxc4LZWwA3XQ+rPTw9Cxrn1IhcvNNyrtK5+lxeTgt5smt24nIMYYNuvZ0PggN9RUr6AKkJiXD/oi5PXN6Mk6mmwDfUESF22yedXr4+MrQko+Lpy+Wcd+DfKSfzXBwNYoJxz59HdMTTiC/ZhfM3vFfHDmwHuuXTsO0fw7GoO6tcFP1Cp7E4IzOE94+cpwFSD+TVsb9EcQ8nbnkHnV2gb5GZ8xc+Rx6ROhh3PcBRjz2Mf5weETFjedDyUdyr5vyzLGCSzh9Rs6YJwJDDSLuSlrMk3svbyJnGDbIDQSifotYGMQK/fy+Xfj9klrskAXn9u/GwQzAK+pmtKxlu9PcgFrKIQwz0o4ex3lnx6stGUg6dE7ZcJfcflzCb9/+hlSLN256cCwevS3Ebpd8IVIPn0KGfFGl7aIOQK3YMLFxEnVOOoKzzk7oM6fjyN9Fdbad9rWos2v8bhqGJcuGo6m/CWf/bxaGPf0VTpbafeW+82GdmhFHD6Y4PRfDnHoQPx+TN+6ojmYto9SwocU8uf/yJnKEYYPcgAdiOnbGLQbxATHxC8xdddj5Xonsg/h40XYkWzwR160HWgSp5Qo/1G/bFJHiXX1p1yos3XX5ig9bxp/X4p1tF9VnNgrTcOxUpti4eCG4moPzI7L/wubNfyNLdFbeatwPDe9sjpriw2jG7k/w/o9O6vyLqPMOd6mzq/So3nUSVr7WVcxnPhI/moLhs35Gum2F3Ho+5BTzcWjz59idZi0pKRe/f/IxvjljhkdMPO6+PdharMU8VYnlTVQawwa5Be9G/fDEXbXEp7R0bHthFEa9uw9nSxwzsCA/dS/eeWwsXtllhC48HqMfuw0lsoYQ3vEB3N/MD8g7hA+eehWfHCr5WTQr8XNMnbAKpw0hIuKg5DF4z3A0rBci/iiycGDjFuyzPZ6Tn4KvZs7E4t9ylT+ayjwcHtZuCB64Rdb5MJZPeBWr/y5Z52xZ54kJSAurptbZZuJa1dl4FF++PRsvLf0Rp8q6D3e5+aDRo69h2bibYUAm9rzxFMZ8mHQ5VF6jti8f6wTz/07As89vxEGj7WY8D0c+/Rf+MWcfjAhE/GPD0SFM7aXFPLl1OxE5J9+TRNeePgL9Z72CJ1oEQpd7AusnDkbD6Ha4reNQ3HXXUHS+owNiGt6PSZtOosDQEI+8JVbwjRx8mZehJSa++RhaB+uQ9VcCRrXvitZ9J2DilJfxyF390LL9JKw1d8XY+xqUvl8CgtFuxCC0NAAZP85H79vvx8NPv4bJT4xGtzv6YciyPAwaa70xV9EGqFIYmmP83FFoGyLqfDABj7fvhvh+T+HpydPxUO++aNbuOay3dMLIu+v+j+psxsnPZmHMlCWY88xkvLpDubbh6ulC0Wn6PMzuHwmPwjP4fNITePaLs7Ae7bpGbV8O1o12OHqO6gUkPIeOLfrjrhHT8dxTT6FPmy6If3Qt/pR3fu3/HOaPljf3KqLFPLlvOxGVhWGD3IY+4k7M/CoBHz/bFY3CvGA2nsVfP+/B9u17sOfPFGTpg9G47xis/M86LBhQ2+5Y9WWBbZ7Exi2v4JHbqsEzOxW/79iMd9/+CAnfpyCo53P4bPML6FFDXjmgg6efH7xs1smGVqOxfMlIdIjyRu7JX5CweBkWrNiO38wtMXXd2xjbPASBft7w9fO0W5Xr4C3G5ePrV8aNsHTw8hf9fXygnBNqI6j1OCR8OQMPtQiFZ85ZHNj2BRYvWIWNP5xBSI9nkLBhGnrVMyBQjN/f7jKbitfZGT1CYmIR4SO6DDXRqLaja0Ud0/v7I8DbDyG2VwnZ8qmL4e+8iWfahMKn8CQSXpiBRT9ZDx1VfD708BbtKtvevl2LefghoMw2kMvGv8xx+N4+Gms+GoPWHkexc90qLFz6BXb+lorcgDj0eX4xvvlwCBpX4rLxkO8TfwMC7Jqy8pc3kfb4RWzknsx5uHjqFE6npuFSoQ9Cw6ujVu0IhPi6ko9NMCYfQ9LpS8j3DUPt2FqIDPISK+Ac7HnxXvScm4ioRz/ArgXtxefFkiyFOUhLOY0jp7PgHxmDuJhQ+MlJW8woNFnEX44enh4lV+UWkwmyl97DQ/mCL0csZjGMWb7cAx4OZ0XUOeU4kk5cRJ6sc1w0okSdFeK1yi0gHExbqkidnbMg99xpnPOORHSws1jngKhjgZiWnL8yp1VUJ0Gn14u2uDysJm1fjjZwOI7iL0QLwMCPvsBHA8PFIsrB2aPHcPRsDvwiaiGuTgSCbBOrA1czTzpRH0dVrtzlTVR5HH0RG8MG3XgKj2Fx/wF4eqcOXeZ/hk0jo5VzIYhKcRQ2iKhM/NZXIiFzz6dYsScTMDRC93aRDBpERBpj2KDrS+EpbHpzKTb/ka58Q2pJJqT/shKjRi7HrzkeiO77MO5r7OTcAiIiqjTFYcNL74+sgnPqM6IqSpeP5K8XYUjrtqh7yyD0e3Aqprw8D9OemYgB7TqiYacZ+Px4IYLvGInFc3pab+tMRESVQuYImSfsFYeNQJ8oGAtS1WdEVZTOgJt6dEPbWG9kHPkV2zauw9uzF2Hee5vw9f5UFIQ0woBp7+K7LZPQsRqTBl2ZcumrPImVbxeiKzKKsCHzhL3iE0SnLrsVod61cHO1AWovoirMUgjj+bM4nXwWKWczYPYPRWRMLOrVDoEPDx5SeVlykXr0NC7mAz7h0YgLd3BvFyIq9seFTUjLP4WZI/c7PkE0JrgDjmf+oD4jquJ0njBUr4VGzVuiU49O6NK+OW6KYdAgF+l8EVG3Hho3rsegQVQOxzN3KXnCXvGqt25odxSaC3A4/Vu1hIiIiKh8ZH6QOSIupJtacllx2PD2MKBpxBAcOL8WqdkH1VIiIiKissncIPODzBE+noFq6WUldio3jRiKOiFdGTiIiIioXIqChswPMkc4UuoI9u1RYxDm3wTfJ8/jIRUiIiJySuYEmRdkbpD5wZniq1F2bN+uFln9nrpa/K6Bp94LsYHxCPdrCINXBAK8qqtDEBER0Y1E3kdD3ibjfM4h5aISeY6GPHRiv0ejU+fOjr8bxT5sSHmFmTiavhUnLv0HmfnJyMxLRoE5W+1LRERENxJ5wy55H41A7yjlqhN5cYk859OeS2GDiIiIyFX2YYN3HSAiIiJNMWwQERGRphg2iIiIqPLZfJ8QwwYRERFpimGDiIiINMWwQURERJpi2CAiIiJNMWwQERGRphg2iIiISFMMG0RERKQphg0iIiLSFMMGERERaYphg4iIiDTFsEFERESVz6I+CgwbREREpCmGDSIiItIUwwYRERFpimGDiIiINMWwQURERJpi2CAiIiJNMWwQERGRphg2iIiISFMMG0RERKQphg0iIiLSFMMGERERaUoPndpFREREpAHu2SAiIiJNMWwQERGRphg2iIiISFMMG0RERKQphg0iIiLSFMMGERERaYphg4iIiDTFsEFERESaYtggIiIiTTFsEBERkaYYNoiIiKjy2XwdCsMGERERaYphg4iIiDTFsEFERESaYtggIiIiTTFsEBERkaYYNoiIiEhTDBtERESkKYYNIiIi0hTDBhEREWmKYYOIiIg0xbBBREREmmLYICIiIs3Ir0hh2CAiIiJNMWwQERGRphg2iIiISFMMG0RERKQphg0iIiLSFMMGERERaYphg4iIiDTFsEFERESaYtggIiIiTTFsEBERkaYYNoiIiEhTDBtERESkKYYNIiIi0hTDBhEREWmKYYOIiIg0xbBBREREmmLYICIiIk0xbBAREZGmGDaIiIhIUwwbREREpCmGDSIiItIUwwYRERFpimGDiIiINMWwQURERJpi2CAiIiJNMWwQERGRphg2iIiISFMMG0RERKQpETZ04h8RERFRJZMBQ/xyzwYRERFVKmvGuLwrQy87C00mnDt3zlpCREREVEEyTxQWmtRnVsqejbzcPBxKTFQKiIiIiCpK5oncvFz1mXXvhjVs5Och8dAhpYCIiIioomSeyM/LV7qtUUMnwoboMmYasWrVapw6dUopJiIiInKVzBEyTxiNxqKkoVD2bBQUFODMmTNYuGiRUkhERETkKpkjZJ6QuUIhAofMHB7BwSEvyefy+MqF8xeQlJSExo0bIygoSBYTERERlUnu0Zg5cxa2bd+GCxcuKGU6nUwaOvkDXUxMrMUC8c+i9ENwcBAiIyPx4LBhaNCgARo2bIjq1atbexIREREJ8qqTQ4cOITExER+vWqXs0ci4lGHtqezRKAob4jcmVoQNGTSskUMJHV5engg0BMLbxxu+Pr7w8NCLPnIY+Z8jTns45NrQgssvcJW2E3C/6mteI01V8beDULXbX1tyh2sVpnH1q3jrCC7OQZVvT22nIPcYaMvJBESx7CMvb83Ly0Vefr5yjkZBQaF1L4YygLpHo6hbhg257pOJw9ohf2TouNxt++iI0s8VLg+u7fhdpX19XHuBxrPrfu3pbqp49W8ocg15A1FW9FpycfSu18bd6q9tfZTDDlqqrPkVxcUhorjb+mg9dFJUdrm/CBt1xKpSrO5twoWzoKE8OmDdNaIhF0fvrJ5OaV79Kl4fV2k8eldpPr9EKmUFW5W5WH3X51bzCbhE8+Xl8uxq2z6VNX5lPMqP7aP437ZMPi8ql6+JFWFDWRnLH2uX7LCuoJUf8c9aqPw4or6q/FwevGqP31Uu18dVGo/e1Qm4WXWoDFq/N62rpRuIxrPr+uhdfIWbLS7N3z8uN4+27XnNxq8Ui77iURmm+NG2zNqtPJPdsXVE2JDrD7uAUfRov5fDEaWfllwcvcv10bz6Vbw+rtJ49K5OQPPqVGXu1jjKyqnq0r76Gk9B89G7V/2rfH2u1fzK8KA8iP+VH/mfOnb1eal+sXXixOpGbH7sQoXjvRxOyNe6QB2zdlwcvcv10bz67lUfV2m+fF3lZtVxXZWfAQ0pq7eqy82qr24utKP56N2r/i7Xx83G7+wFSqn4T5m+DBLF3SXLlGeyW3bVEWFDrsrU3RvW3KAEjKJH0aX8WB8dUYcuP5cHd/EFrqri9XEV608VpnXTKyuoG4d1NexGNK6O5vPrbvV3eXCtZ8C18TsdWvRQ6ip/lHGqNXcQMqxlwP8D0dFykjWcTCQAAAAASUVORK5CYII=;" vertex="1" parent="1">
          <mxGeometry x="1590" y="340" width="539" height="531" as="geometry" />
        </mxCell>
        <mxCell id="ZJUjNV4Mgbb7EmD_GLAI-3" value="ListModel" style="shape=datastore;whiteSpace=wrap;html=1;fillColor=#f8cecc;strokeColor=#b85450;fontSize=26;" vertex="1" parent="1">
          <mxGeometry x="1060" y="650" width="230" height="240" as="geometry" />
        </mxCell>
        <mxCell id="ZJUjNV4Mgbb7EmD_GLAI-5" value="ListView" style="text;html=1;strokeColor=none;fillColor=none;align=center;verticalAlign=middle;whiteSpace=wrap;rounded=0;fontSize=26;" vertex="1" parent="1">
          <mxGeometry x="1829.5" y="810" width="60" height="30" as="geometry" />
        </mxCell>
      </root>
    </mxGraphModel>
  </diagram>
</mxfile>
